<svg xmlns="http://www.w3.org/2000/svg" xmlns:xlink="http://www.w3.org/1999/xlink" width="200" zoomAndPan="magnify" viewBox="0 0 150 149.999998" height="200" preserveAspectRatio="xMidYMid meet" version="1.0"><defs><clipPath id="f11dfbfc5e"><path d="M 37 16 L 136.800781 16 L 136.800781 118 L 37 118 Z M 37 16 " clip-rule="nonzero"/></clipPath><clipPath id="acd5f7f3c0"><path d="M 13.050781 32 L 113 32 L 113 133.742188 L 13.050781 133.742188 Z M 13.050781 32 " clip-rule="nonzero"/></clipPath></defs><path fill="#ff7a00" d="M 39.847656 43.0625 C 44.269531 37.535156 50.277344 33.3125 57.121094 30.804688 C 62.648438 28.78125 68.558594 27.730469 74.449219 27.730469 C 100.21875 27.730469 121.183594 48.675781 121.183594 74.417969 C 121.183594 74.769531 121.179688 75.125 121.171875 75.476562 C 120.515625 72.34375 119.558594 69.1875 118.253906 66.101562 C 116.058594 60.894531 112.882812 55.921875 108.796875 51.617188 C 108.277344 51.089844 107.753906 50.5625 107.226562 50.035156 C 106.675781 49.527344 106.113281 49.03125 105.574219 48.515625 C 105.378906 48.324219 105.78125 48.71875 105.714844 48.65625 L 105.648438 48.597656 L 105.515625 48.484375 L 105.246094 48.253906 L 104.183594 47.339844 L 104.050781 47.222656 L 103.957031 47.160156 L 103.777344 47.035156 C 103.535156 46.867188 103.300781 46.695312 103.066406 46.523438 C 102.960938 46.441406 102.804688 46.339844 102.660156 46.242188 L 102.222656 45.949219 C 101.65625 45.53125 101.042969 45.179688 100.449219 44.804688 L 100.226562 44.667969 L 99.996094 44.542969 L 99.53125 44.289062 L 99.070312 44.035156 L 98.839844 43.90625 L 98.601562 43.789062 C 98.285156 43.640625 97.96875 43.484375 97.65625 43.320312 C 97.5 43.238281 97.339844 43.167969 97.179688 43.097656 L 96.695312 42.886719 C 96.058594 42.582031 95.390625 42.351562 94.738281 42.09375 C 92.082031 41.140625 89.308594 40.480469 86.476562 40.203125 L 85.949219 40.148438 C 85.769531 40.128906 85.59375 40.113281 85.417969 40.109375 L 84.351562 40.050781 C 83.996094 40.027344 83.640625 40.046875 83.285156 40.039062 C 82.929688 40.035156 82.574219 40.019531 82.21875 40.039062 L 81.152344 40.070312 L 80.085938 40.152344 C 79.910156 40.171875 79.730469 40.175781 79.554688 40.199219 L 79.027344 40.265625 C 78.675781 40.316406 78.320312 40.34375 77.96875 40.40625 C 72.332031 41.226562 66.992188 43.53125 62.496094 46.953125 C 61.945312 47.394531 61.367188 47.8125 60.847656 48.292969 L 60.445312 48.644531 L 60.246094 48.816406 L 60.195312 48.859375 C 60.265625 48.78125 59.957031 49.09375 60.34375 48.699219 L 60.214844 48.824219 C 59.875 49.160156 59.535156 49.496094 59.195312 49.832031 L 59.074219 49.949219 L 58.886719 50.148438 L 58.628906 50.410156 C 58.46875 50.546875 58.242188 50.824219 58.035156 51.058594 L 57.714844 51.421875 C 57.609375 51.542969 57.515625 51.671875 57.414062 51.796875 L 57.117188 52.171875 C 57.015625 52.296875 56.914062 52.421875 56.828125 52.554688 C 56.054688 53.570312 55.382812 54.660156 54.785156 55.789062 C 54.203125 56.921875 53.652344 58.082031 53.25 59.292969 C 51.542969 64.121094 51.371094 69.449219 52.546875 74.3125 C 52.675781 74.929688 52.875 75.519531 53.039062 76.121094 C 53.257812 76.703125 53.425781 77.308594 53.667969 77.878906 C 53.785156 78.160156 53.882812 78.460938 54.015625 78.738281 C 54.144531 79.023438 54.269531 79.304688 54.398438 79.585938 C 54.519531 79.867188 54.679688 80.132812 54.8125 80.410156 C 54.949219 80.6875 55.082031 80.964844 55.242188 81.230469 C 55.390625 81.5 55.542969 81.765625 55.695312 82.03125 C 55.851562 82.296875 56.023438 82.546875 56.183594 82.808594 C 56.347656 83.066406 56.507812 83.328125 56.691406 83.570312 C 56.867188 83.824219 57.039062 84.074219 57.214844 84.324219 L 57.28125 84.417969 C 57.410156 84.550781 57.136719 84.289062 57.183594 84.335938 L 57.226562 84.390625 L 57.410156 84.613281 L 57.777344 85.054688 C 57.964844 85.28125 58.152344 85.507812 58.335938 85.734375 C 58.589844 86.082031 59.015625 86.519531 59.386719 86.925781 C 60.164062 87.726562 61.011719 88.441406 61.878906 89.117188 C 62.746094 89.796875 63.675781 90.355469 64.609375 90.894531 C 64.847656 91.019531 65.085938 91.148438 65.320312 91.273438 C 65.5625 91.390625 65.804688 91.503906 66.042969 91.617188 C 66.28125 91.738281 66.527344 91.835938 66.769531 91.941406 C 67.011719 92.039062 67.253906 92.160156 67.5 92.242188 C 67.746094 92.332031 67.992188 92.421875 68.234375 92.515625 C 68.480469 92.605469 68.726562 92.671875 68.972656 92.753906 C 69.464844 92.921875 69.960938 93.035156 70.453125 93.175781 C 70.699219 93.234375 70.945312 93.285156 71.191406 93.339844 C 71.4375 93.394531 71.683594 93.449219 71.925781 93.484375 C 72.171875 93.527344 72.417969 93.570312 72.660156 93.613281 C 72.902344 93.652344 73.144531 93.675781 73.386719 93.710938 C 74.351562 93.835938 75.296875 93.878906 76.226562 93.910156 C 78.070312 93.925781 79.808594 93.753906 81.382812 93.460938 C 82.960938 93.175781 84.378906 92.773438 85.59375 92.339844 C 86.214844 92.140625 86.757812 91.894531 87.285156 91.695312 C 87.796875 91.476562 88.261719 91.257812 88.683594 91.070312 C 89.089844 90.859375 89.453125 90.671875 89.777344 90.515625 C 90.097656 90.355469 90.347656 90.195312 90.5625 90.082031 C 90.992188 89.84375 91.214844 89.71875 91.214844 89.71875 C 91.214844 89.71875 91.078125 89.933594 90.820312 90.347656 C 90.683594 90.554688 90.527344 90.820312 90.316406 91.117188 C 90.105469 91.414062 89.851562 91.753906 89.5625 92.144531 C 89.257812 92.515625 88.917969 92.9375 88.523438 93.394531 C 88.113281 93.828125 87.675781 94.324219 87.152344 94.8125 C 86.890625 95.050781 86.628906 95.324219 86.328125 95.570312 C 86.03125 95.820312 85.726562 96.078125 85.410156 96.347656 C 85.078125 96.597656 84.734375 96.859375 84.378906 97.125 C 84.023438 97.394531 83.636719 97.640625 83.242188 97.90625 C 81.652344 98.933594 79.757812 99.933594 77.542969 100.742188 C 76.984375 100.925781 76.414062 101.136719 75.820312 101.304688 C 75.230469 101.46875 74.617188 101.648438 73.988281 101.777344 C 72.726562 102.082031 71.390625 102.265625 69.988281 102.40625 C 67.191406 102.644531 64.117188 102.53125 60.917969 101.859375 C 57.71875 101.203125 54.402344 99.976562 51.203125 98.113281 C 50.410156 97.628906 49.644531 97.179688 48.773438 96.527344 C 48.402344 96.25 48.027344 95.976562 47.648438 95.699219 L 47.191406 95.355469 L 46.957031 95.183594 L 46.902344 95.140625 C 46.910156 95.15625 46.605469 94.859375 46.703125 94.957031 L 46.570312 94.84375 C 45.867188 94.234375 45.132812 93.636719 44.460938 92.957031 C 44.121094 92.621094 43.769531 92.292969 43.433594 91.945312 C 43.101562 91.589844 42.769531 91.234375 42.4375 90.878906 C 41.121094 89.425781 39.875 87.84375 38.75 86.132812 C 38.160156 85.292969 37.648438 84.394531 37.117188 83.492188 C 36.632812 82.570312 36.121094 81.644531 35.6875 80.671875 C 35.222656 79.710938 34.828125 78.714844 34.433594 77.703125 C 31.792969 70.972656 31.367188 63.519531 33.144531 56.5 C 34.421875 51.472656 36.742188 46.945312 39.847656 43.0625 " fill-opacity="1" fill-rule="nonzero"/><g clip-path="url(#f11dfbfc5e)"><path fill="#ff1616" d="M 89.351562 16.683594 C 90.585938 16.824219 91.804688 17.066406 93.023438 17.289062 C 93.632812 17.417969 94.234375 17.566406 94.835938 17.710938 L 95.738281 17.925781 L 96.628906 18.179688 C 97.222656 18.351562 97.816406 18.519531 98.40625 18.703125 C 98.992188 18.902344 99.574219 19.101562 100.15625 19.300781 C 100.742188 19.492188 101.3125 19.71875 101.882812 19.949219 C 102.449219 20.183594 103.023438 20.402344 103.582031 20.660156 C 104.695312 21.171875 105.808594 21.671875 106.878906 22.257812 L 107.6875 22.683594 C 107.957031 22.820312 108.222656 22.96875 108.484375 23.125 C 109.007812 23.433594 109.53125 23.742188 110.046875 24.054688 L 110.4375 24.289062 L 110.816406 24.539062 L 112.316406 25.546875 L 112.691406 25.800781 L 113.054688 26.066406 C 114.019531 26.78125 114.988281 27.488281 115.890625 28.261719 L 116.574219 28.832031 C 116.804688 29.027344 117.023438 29.207031 117.273438 29.4375 C 117.75 29.882812 118.226562 30.324219 118.703125 30.765625 L 119.054688 31.097656 L 119.234375 31.265625 L 119.355469 31.390625 L 119.839844 31.902344 L 120.566406 32.664062 L 120.6875 32.789062 L 120.75 32.855469 C 120.726562 32.832031 121.164062 33.261719 121.011719 33.117188 C 121.757812 33.957031 122.484375 34.800781 123.199219 35.644531 C 123.882812 36.519531 124.566406 37.386719 125.230469 38.261719 C 125.863281 39.160156 126.496094 40.050781 127.101562 40.957031 C 127.675781 41.882812 128.246094 42.800781 128.800781 43.722656 C 129.320312 44.667969 129.84375 45.597656 130.335938 46.539062 C 130.796875 47.496094 131.257812 48.445312 131.691406 49.398438 C 132.101562 50.363281 132.507812 51.324219 132.890625 52.28125 C 133.238281 53.257812 133.582031 54.222656 133.910156 55.183594 C 134.199219 56.160156 134.484375 57.125 134.773438 58.089844 C 135.011719 59.0625 135.238281 60.03125 135.460938 60.988281 C 135.652344 61.953125 135.828125 62.917969 136 63.863281 C 136.15625 64.820312 136.257812 65.777344 136.382812 66.714844 C 136.453125 67.183594 136.46875 67.660156 136.515625 68.128906 C 136.550781 68.59375 136.585938 69.0625 136.625 69.527344 C 136.667969 69.988281 136.679688 70.453125 136.6875 70.914062 C 136.699219 71.375 136.710938 71.835938 136.722656 72.289062 C 136.765625 75.9375 136.457031 79.4375 135.890625 82.71875 C 135.339844 86.003906 134.484375 89.070312 133.464844 91.878906 C 132.988281 93.289062 132.394531 94.621094 131.84375 95.90625 C 131.222656 97.171875 130.667969 98.40625 130 99.539062 C 129.675781 100.109375 129.378906 100.675781 129.046875 101.214844 C 128.710938 101.746094 128.378906 102.269531 128.050781 102.785156 C 127.886719 103.039062 127.734375 103.292969 127.5625 103.539062 C 127.386719 103.78125 127.21875 104.023438 127.050781 104.261719 C 126.707031 104.730469 126.375 105.191406 126.046875 105.644531 C 125.359375 106.527344 124.6875 107.351562 124.035156 108.125 C 123.351562 108.882812 122.707031 109.597656 122.078125 110.253906 C 121.425781 110.894531 120.804688 111.488281 120.230469 112.046875 C 119.621094 112.582031 119.046875 113.066406 118.515625 113.523438 C 117.996094 113.976562 117.460938 114.367188 116.988281 114.726562 C 116.515625 115.078125 116.085938 115.394531 115.699219 115.679688 C 114.125 116.722656 113.257812 117.246094 113.257812 117.246094 C 124.472656 99.804688 125.957031 86.210938 125.832031 73.480469 C 125.574219 46.910156 101.90625 24.75 74.449219 24.75 C 59.847656 24.75 46.71875 31.035156 37.625 41.046875 C 37.753906 40.824219 37.882812 40.605469 38.011719 40.382812 C 38.167969 40.109375 38.335938 39.847656 38.507812 39.582031 L 39.023438 38.792969 C 39.199219 38.53125 39.363281 38.265625 39.546875 38.007812 L 40.101562 37.242188 C 40.476562 36.726562 40.816406 36.238281 41.292969 35.667969 L 41.96875 34.84375 L 42.3125 34.433594 L 42.484375 34.226562 L 42.609375 34.082031 C 42.925781 33.726562 43.246094 33.371094 43.566406 33.011719 L 43.683594 32.878906 L 44.042969 32.507812 L 45.007812 31.542969 C 45.851562 30.671875 46.769531 29.871094 47.679688 29.050781 C 49.535156 27.460938 51.5 25.964844 53.589844 24.636719 C 54.617188 23.945312 55.695312 23.335938 56.777344 22.722656 C 57.320312 22.417969 57.878906 22.148438 58.433594 21.863281 L 59.265625 21.445312 C 59.546875 21.304688 59.832031 21.183594 60.117188 21.054688 L 61.824219 20.292969 C 62.402344 20.0625 62.984375 19.835938 63.566406 19.609375 C 63.859375 19.5 64.148438 19.382812 64.441406 19.273438 L 65.332031 18.980469 C 65.925781 18.789062 66.515625 18.585938 67.117188 18.410156 C 68.320312 18.078125 69.523438 17.730469 70.75 17.480469 C 71.964844 17.1875 73.199219 16.984375 74.433594 16.78125 C 79.382812 16.078125 84.425781 15.996094 89.351562 16.683594 " fill-opacity="1" fill-rule="nonzero"/></g><path fill="#fff500" d="M 110.019531 106.675781 C 105.597656 112.203125 99.589844 116.425781 92.746094 118.933594 C 87.21875 120.957031 81.308594 122.007812 75.417969 122.007812 C 49.648438 122.007812 28.683594 101.0625 28.683594 75.320312 C 28.683594 74.96875 28.6875 74.613281 28.695312 74.261719 C 29.351562 77.394531 30.308594 80.550781 31.609375 83.636719 C 33.808594 88.84375 36.984375 93.816406 41.070312 98.121094 C 41.589844 98.648438 42.113281 99.175781 42.640625 99.703125 C 43.195312 100.210938 43.75 100.707031 44.292969 101.222656 C 44.484375 101.414062 44.085938 101.019531 44.152344 101.082031 L 44.21875 101.140625 L 44.351562 101.253906 L 44.617188 101.484375 L 45.152344 101.941406 L 45.683594 102.398438 L 45.816406 102.515625 L 45.910156 102.578125 L 46.089844 102.703125 C 46.332031 102.871094 46.566406 103.042969 46.800781 103.214844 C 46.90625 103.296875 47.0625 103.398438 47.207031 103.496094 L 47.644531 103.789062 C 48.210938 104.207031 48.824219 104.558594 49.417969 104.929688 L 49.640625 105.070312 L 49.871094 105.195312 L 50.335938 105.449219 L 50.796875 105.703125 L 51.027344 105.832031 L 51.265625 105.949219 C 51.582031 106.097656 51.898438 106.253906 52.210938 106.417969 C 52.363281 106.5 52.523438 106.570312 52.6875 106.640625 L 53.171875 106.851562 C 53.804688 107.15625 54.476562 107.386719 55.128906 107.644531 C 57.785156 108.597656 60.558594 109.257812 63.390625 109.535156 L 63.917969 109.589844 C 64.09375 109.609375 64.273438 109.625 64.449219 109.628906 L 65.515625 109.6875 C 65.871094 109.710938 66.226562 109.691406 66.582031 109.699219 C 66.9375 109.703125 67.292969 109.71875 67.648438 109.699219 L 68.714844 109.667969 L 69.777344 109.585938 C 69.957031 109.566406 70.132812 109.5625 70.3125 109.539062 L 70.839844 109.472656 C 71.191406 109.421875 71.546875 109.394531 71.898438 109.332031 C 77.535156 108.511719 82.871094 106.207031 87.371094 102.785156 C 87.921875 102.34375 88.496094 101.925781 89.019531 101.445312 L 89.421875 101.09375 L 89.621094 100.921875 L 89.675781 100.878906 C 89.601562 100.957031 89.90625 100.644531 89.523438 101.039062 L 89.648438 100.914062 C 89.992188 100.578125 90.332031 100.242188 90.671875 99.90625 L 90.792969 99.789062 L 90.980469 99.589844 L 91.238281 99.328125 C 91.398438 99.191406 91.625 98.914062 91.832031 98.679688 L 92.152344 98.316406 C 92.257812 98.195312 92.351562 98.066406 92.449219 97.941406 L 92.75 97.566406 C 92.851562 97.441406 92.949219 97.316406 93.039062 97.183594 C 93.8125 96.164062 94.484375 95.078125 95.082031 93.949219 C 95.664062 92.816406 96.214844 91.65625 96.617188 90.445312 C 98.328125 85.617188 98.496094 80.289062 97.320312 75.425781 C 97.191406 74.808594 96.992188 74.21875 96.824219 73.617188 C 96.609375 73.035156 96.441406 72.429688 96.199219 71.859375 C 96.078125 71.578125 95.984375 71.277344 95.851562 71 C 95.722656 70.714844 95.59375 70.433594 95.46875 70.152344 C 95.347656 69.871094 95.1875 69.605469 95.054688 69.328125 C 94.917969 69.050781 94.785156 68.769531 94.625 68.507812 C 94.472656 68.238281 94.324219 67.972656 94.171875 67.707031 C 94.015625 67.441406 93.84375 67.191406 93.683594 66.929688 C 93.519531 66.671875 93.359375 66.410156 93.175781 66.167969 C 93 65.914062 92.824219 65.664062 92.652344 65.414062 L 92.585938 65.320312 C 92.457031 65.1875 92.730469 65.449219 92.683594 65.402344 L 92.640625 65.347656 L 92.457031 65.125 L 92.089844 64.683594 C 91.902344 64.457031 91.714844 64.230469 91.53125 64.003906 C 91.277344 63.65625 90.851562 63.21875 90.480469 62.8125 C 89.699219 62.011719 88.855469 61.296875 87.988281 60.621094 C 87.121094 59.941406 86.191406 59.382812 85.257812 58.84375 C 85.019531 58.71875 84.78125 58.589844 84.546875 58.464844 C 84.304688 58.347656 84.0625 58.234375 83.824219 58.121094 C 83.585938 58 83.339844 57.902344 83.097656 57.796875 C 82.855469 57.699219 82.613281 57.582031 82.367188 57.496094 C 82.121094 57.40625 81.875 57.316406 81.632812 57.222656 C 81.386719 57.132812 81.140625 57.066406 80.890625 56.984375 C 80.402344 56.816406 79.90625 56.703125 79.414062 56.5625 C 79.167969 56.503906 78.921875 56.453125 78.675781 56.398438 C 78.429688 56.34375 78.183594 56.289062 77.941406 56.253906 C 77.695312 56.210938 77.449219 56.167969 77.207031 56.125 C 76.964844 56.085938 76.722656 56.0625 76.480469 56.027344 C 75.515625 55.902344 74.566406 55.859375 73.640625 55.828125 C 71.796875 55.8125 70.058594 55.984375 68.480469 56.277344 C 66.90625 56.5625 65.488281 56.964844 64.273438 57.398438 C 63.652344 57.597656 63.109375 57.84375 62.582031 58.042969 C 62.070312 58.261719 61.605469 58.480469 61.183594 58.667969 C 60.777344 58.878906 60.414062 59.066406 60.089844 59.222656 C 59.769531 59.382812 59.519531 59.542969 59.304688 59.65625 C 58.875 59.894531 58.652344 60.019531 58.652344 60.019531 C 58.652344 60.019531 58.789062 59.804688 59.046875 59.390625 C 59.183594 59.183594 59.339844 58.917969 59.550781 58.621094 C 59.761719 58.320312 60.015625 57.980469 60.304688 57.59375 C 60.609375 57.222656 60.949219 56.800781 61.34375 56.34375 C 61.75 55.910156 62.191406 55.414062 62.714844 54.925781 C 62.976562 54.6875 63.238281 54.414062 63.535156 54.167969 C 63.832031 53.917969 64.140625 53.65625 64.457031 53.390625 C 64.789062 53.140625 65.132812 52.878906 65.484375 52.613281 C 65.84375 52.34375 66.230469 52.097656 66.625 51.832031 C 68.214844 50.804688 70.109375 49.804688 72.324219 48.996094 C 72.878906 48.8125 73.449219 48.601562 74.042969 48.433594 C 74.636719 48.269531 75.25 48.089844 75.878906 47.960938 C 77.140625 47.65625 78.476562 47.472656 79.878906 47.332031 C 82.675781 47.09375 85.75 47.207031 88.949219 47.878906 C 92.144531 48.535156 95.464844 49.761719 98.660156 51.625 C 99.457031 52.109375 100.222656 52.558594 101.09375 53.210938 C 101.464844 53.488281 101.839844 53.761719 102.214844 54.039062 L 102.90625 54.554688 L 102.964844 54.597656 C 102.953125 54.582031 103.261719 54.878906 103.164062 54.78125 L 103.296875 54.894531 C 104 55.503906 104.734375 56.101562 105.40625 56.78125 C 105.746094 57.117188 106.097656 57.445312 106.433594 57.792969 C 106.765625 58.148438 107.097656 58.503906 107.429688 58.859375 C 108.746094 60.3125 109.992188 61.894531 111.117188 63.605469 C 111.703125 64.445312 112.21875 65.34375 112.75 66.246094 C 113.234375 67.167969 113.746094 68.09375 114.179688 69.066406 C 114.644531 70.027344 115.039062 71.023438 115.433594 72.035156 C 118.070312 78.765625 118.5 86.21875 116.722656 93.238281 C 115.445312 98.265625 113.125 102.792969 110.019531 106.675781 " fill-opacity="1" fill-rule="nonzero"/><g clip-path="url(#acd5f7f3c0)"><path fill="#ff1616" d="M 60.515625 133.054688 C 59.28125 132.914062 58.0625 132.671875 56.839844 132.449219 C 56.234375 132.320312 55.632812 132.171875 55.03125 132.027344 L 54.128906 131.8125 L 53.238281 131.558594 C 52.644531 131.386719 52.050781 131.21875 51.460938 131.035156 C 50.875 130.835938 50.292969 130.636719 49.710938 130.4375 C 49.125 130.246094 48.554688 130.019531 47.984375 129.789062 C 47.417969 129.554688 46.84375 129.335938 46.285156 129.078125 C 45.171875 128.566406 44.058594 128.066406 42.984375 127.480469 L 42.179688 127.054688 C 41.910156 126.917969 41.640625 126.769531 41.382812 126.613281 C 40.855469 126.304688 40.335938 125.996094 39.816406 125.683594 L 39.429688 125.449219 L 39.050781 125.199219 L 38.296875 124.695312 L 37.550781 124.191406 L 37.175781 123.9375 L 36.8125 123.671875 C 35.847656 122.957031 34.878906 122.25 33.972656 121.476562 L 33.289062 120.90625 C 33.0625 120.710938 32.84375 120.53125 32.59375 120.296875 C 32.117188 119.855469 31.640625 119.414062 31.164062 118.972656 L 30.808594 118.640625 L 30.632812 118.472656 L 30.511719 118.347656 L 30.027344 117.835938 L 29.539062 117.328125 L 29.300781 117.074219 L 29.175781 116.949219 L 29.117188 116.882812 C 29.140625 116.90625 28.699219 116.476562 28.855469 116.621094 C 28.109375 115.78125 27.382812 114.9375 26.667969 114.09375 C 25.980469 113.21875 25.300781 112.351562 24.636719 111.476562 C 24.003906 110.574219 23.367188 109.6875 22.765625 108.78125 C 22.191406 107.855469 21.617188 106.9375 21.066406 106.015625 C 20.546875 105.070312 20.023438 104.140625 19.53125 103.199219 C 19.070312 102.242188 18.609375 101.292969 18.171875 100.339844 C 17.765625 99.371094 17.359375 98.414062 16.976562 97.457031 C 16.628906 96.480469 16.285156 95.515625 15.957031 94.554688 C 15.667969 93.578125 15.378906 92.613281 15.09375 91.648438 C 14.855469 90.675781 14.628906 89.707031 14.40625 88.75 C 14.214844 87.785156 14.039062 86.820312 13.867188 85.875 C 13.710938 84.917969 13.609375 83.960938 13.484375 83.023438 C 13.414062 82.554688 13.398438 82.078125 13.351562 81.609375 C 13.316406 81.144531 13.28125 80.675781 13.242188 80.210938 C 13.199219 79.75 13.1875 79.285156 13.175781 78.824219 C 13.167969 78.363281 13.15625 77.902344 13.144531 77.449219 C 13.101562 73.800781 13.40625 70.300781 13.976562 67.019531 C 14.527344 63.734375 15.382812 60.667969 16.402344 57.859375 C 16.878906 56.449219 17.472656 55.117188 18.023438 53.832031 C 18.644531 52.566406 19.199219 51.332031 19.867188 50.199219 C 20.191406 49.628906 20.488281 49.0625 20.816406 48.523438 C 21.15625 47.992188 21.488281 47.46875 21.816406 46.953125 C 21.980469 46.699219 22.136719 46.445312 22.304688 46.199219 C 22.476562 45.957031 22.648438 45.714844 22.816406 45.476562 C 23.160156 45.007812 23.492188 44.546875 23.820312 44.09375 C 24.507812 43.210938 25.179688 42.386719 25.832031 41.613281 C 26.511719 40.855469 27.160156 40.140625 27.789062 39.484375 C 28.441406 38.84375 29.0625 38.25 29.636719 37.691406 C 30.242188 37.15625 30.820312 36.667969 31.347656 36.214844 C 31.871094 35.761719 32.402344 35.367188 32.878906 35.011719 C 33.351562 34.660156 33.78125 34.34375 34.167969 34.058594 C 35.742188 33.015625 36.609375 32.492188 36.609375 32.492188 C 25.394531 49.933594 23.910156 63.527344 24.035156 76.257812 C 24.292969 102.828125 47.960938 124.988281 75.417969 124.988281 C 90.019531 124.988281 103.148438 118.703125 112.242188 108.691406 C 112.113281 108.914062 111.984375 109.132812 111.855469 109.355469 C 111.699219 109.628906 111.53125 109.890625 111.359375 110.15625 L 110.84375 110.945312 C 110.667969 111.207031 110.5 111.472656 110.320312 111.730469 L 109.765625 112.496094 C 109.390625 113.011719 109.050781 113.5 108.574219 114.070312 L 107.898438 114.894531 L 107.554688 115.304688 L 107.382812 115.511719 L 107.257812 115.65625 C 106.941406 116.011719 106.621094 116.367188 106.300781 116.726562 L 106.183594 116.859375 L 105.820312 117.230469 L 105.5 117.550781 L 104.859375 118.195312 C 104.015625 119.066406 103.097656 119.867188 102.191406 120.6875 C 100.332031 122.277344 98.367188 123.773438 96.277344 125.101562 C 95.25 125.792969 94.171875 126.402344 93.089844 127.015625 C 92.546875 127.320312 91.984375 127.589844 91.433594 127.875 L 90.601562 128.292969 C 90.320312 128.433594 90.035156 128.554688 89.75 128.683594 L 88.042969 129.445312 C 87.464844 129.675781 86.882812 129.902344 86.300781 130.128906 C 86.007812 130.238281 85.71875 130.355469 85.425781 130.464844 L 84.535156 130.757812 C 83.941406 130.949219 83.351562 131.152344 82.75 131.328125 C 81.542969 131.660156 80.34375 132.007812 79.117188 132.257812 C 77.902344 132.550781 76.667969 132.753906 75.433594 132.957031 C 70.484375 133.660156 65.441406 133.742188 60.515625 133.054688 " fill-opacity="1" fill-rule="nonzero"/></g></svg>