<svg xmlns="http://www.w3.org/2000/svg" xmlns:xlink="http://www.w3.org/1999/xlink" width="200" zoomAndPan="magnify" viewBox="0 0 150 149.999998" height="200" preserveAspectRatio="xMidYMid meet" version="1.0"><defs><clipPath id="id1"><path d="M 0 18.273438 L 150 18.273438 L 150 131.523438 L 0 131.523438 Z M 0 18.273438 " clip-rule="nonzero"/></clipPath></defs><path fill="#ffcd00" d="M 138.0625 130.054688 L 11.9375 130.054688 C 6.265625 130.054688 1.671875 125.46875 1.671875 119.808594 L 1.671875 29.984375 C 1.671875 24.324219 6.265625 19.738281 11.9375 19.738281 L 138.0625 19.738281 C 143.730469 19.738281 148.328125 24.324219 148.328125 29.984375 L 148.328125 119.808594 C 148.328125 125.46875 143.730469 130.054688 138.0625 130.054688 Z M 138.0625 130.054688 " fill-opacity="1" fill-rule="nonzero"/><g clip-path="url(#id1)"><path fill="#353333" d="M 138.0625 131.519531 L 11.9375 131.519531 C 5.46875 131.519531 0.203125 126.265625 0.203125 119.808594 L 0.203125 29.984375 C 0.203125 23.527344 5.46875 18.273438 11.9375 18.273438 L 138.0625 18.273438 C 144.53125 18.273438 149.796875 23.527344 149.796875 29.984375 L 149.796875 119.808594 C 149.796875 126.265625 144.53125 131.519531 138.0625 131.519531 Z M 11.9375 21.199219 C 7.085938 21.199219 3.136719 25.140625 3.136719 29.984375 L 3.136719 119.808594 C 3.136719 124.652344 7.085938 128.59375 11.9375 128.59375 L 138.0625 128.59375 C 142.914062 128.59375 146.863281 124.652344 146.863281 119.808594 L 146.863281 29.984375 C 146.863281 25.140625 142.914062 21.199219 138.0625 21.199219 Z M 11.9375 21.199219 " fill-opacity="1" fill-rule="nonzero"/></g><path fill="#353333" d="M 94.445312 66.375 L 63.503906 48.539062 C 61.546875 47.414062 59.101562 48.824219 59.101562 51.078125 L 59.101562 86.746094 C 59.101562 89 61.546875 90.40625 63.503906 89.28125 L 94.445312 71.445312 C 96.402344 70.320312 96.402344 67.503906 94.445312 66.375 Z M 94.445312 66.375 " fill-opacity="1" fill-rule="nonzero"/><path fill="#353333" d="M 62.035156 91.144531 C 61.28125 91.144531 60.523438 90.945312 59.835938 90.550781 C 58.457031 89.753906 57.636719 88.332031 57.636719 86.746094 L 57.636719 51.074219 C 57.636719 49.488281 58.457031 48.066406 59.835938 47.273438 C 61.214844 46.476562 62.859375 46.480469 64.234375 47.273438 L 95.179688 65.105469 C 96.558594 65.902344 97.378906 67.324219 97.378906 68.910156 C 97.378906 70.5 96.558594 71.921875 95.179688 72.714844 L 64.234375 90.550781 C 63.546875 90.945312 62.792969 91.144531 62.035156 91.144531 Z M 62.042969 49.605469 C 61.703125 49.605469 61.4375 49.730469 61.300781 49.808594 C 61.082031 49.9375 60.570312 50.3125 60.570312 51.074219 L 60.570312 86.746094 C 60.570312 87.507812 61.082031 87.886719 61.300781 88.011719 C 61.523438 88.140625 62.105469 88.394531 62.769531 88.011719 L 93.714844 70.179688 C 94.375 69.796875 94.445312 69.164062 94.445312 68.910156 C 94.445312 68.65625 94.375 68.023438 93.714844 67.644531 L 62.769531 49.808594 C 62.507812 49.660156 62.261719 49.605469 62.042969 49.605469 Z M 62.042969 49.605469 " fill-opacity="1" fill-rule="nonzero"/><path fill="#353333" d="M 148.328125 112.914062 L 1.671875 112.914062 C 0.863281 112.914062 0.203125 112.257812 0.203125 111.449219 C 0.203125 110.640625 0.863281 109.984375 1.671875 109.984375 L 148.328125 109.984375 C 149.136719 109.984375 149.796875 110.640625 149.796875 111.449219 C 149.796875 112.257812 149.136719 112.914062 148.328125 112.914062 Z M 148.328125 112.914062 " fill-opacity="1" fill-rule="nonzero"/><path fill="#ffffff" d="M 114.339844 111.449219 C 114.339844 111.894531 114.296875 112.335938 114.207031 112.777344 C 114.121094 113.214844 113.992188 113.640625 113.820312 114.050781 C 113.648438 114.464844 113.441406 114.855469 113.191406 115.226562 C 112.941406 115.597656 112.660156 115.941406 112.34375 116.257812 C 112.027344 116.574219 111.683594 116.855469 111.3125 117.101562 C 110.941406 117.351562 110.546875 117.5625 110.132812 117.730469 C 109.71875 117.902344 109.292969 118.03125 108.855469 118.117188 C 108.417969 118.207031 107.972656 118.25 107.527344 118.25 C 107.078125 118.25 106.636719 118.207031 106.199219 118.117188 C 105.757812 118.03125 105.332031 117.902344 104.917969 117.730469 C 104.507812 117.5625 104.113281 117.351562 103.742188 117.101562 C 103.371094 116.855469 103.027344 116.574219 102.710938 116.257812 C 102.394531 115.941406 102.109375 115.597656 101.863281 115.226562 C 101.613281 114.855469 101.402344 114.464844 101.234375 114.050781 C 101.0625 113.640625 100.933594 113.214844 100.84375 112.777344 C 100.757812 112.335938 100.714844 111.894531 100.714844 111.449219 C 100.714844 111.003906 100.757812 110.558594 100.84375 110.121094 C 100.933594 109.683594 101.0625 109.257812 101.234375 108.847656 C 101.402344 108.433594 101.613281 108.042969 101.863281 107.671875 C 102.109375 107.300781 102.394531 106.957031 102.710938 106.640625 C 103.027344 106.324219 103.371094 106.042969 103.742188 105.792969 C 104.113281 105.546875 104.507812 105.335938 104.917969 105.167969 C 105.332031 104.996094 105.757812 104.867188 106.199219 104.777344 C 106.636719 104.691406 107.078125 104.648438 107.527344 104.648438 C 107.972656 104.648438 108.417969 104.691406 108.855469 104.777344 C 109.292969 104.867188 109.71875 104.996094 110.132812 105.167969 C 110.546875 105.335938 110.941406 105.546875 111.3125 105.792969 C 111.683594 106.042969 112.027344 106.324219 112.34375 106.640625 C 112.660156 106.957031 112.941406 107.300781 113.191406 107.671875 C 113.441406 108.042969 113.648438 108.433594 113.820312 108.847656 C 113.992188 109.257812 114.121094 109.683594 114.207031 110.121094 C 114.296875 110.558594 114.339844 111.003906 114.339844 111.449219 Z M 114.339844 111.449219 " fill-opacity="1" fill-rule="nonzero"/><path fill="#353333" d="M 107.527344 119.714844 C 102.960938 119.714844 99.246094 116.003906 99.246094 111.449219 C 99.246094 106.890625 102.960938 103.183594 107.527344 103.183594 C 112.089844 103.183594 115.804688 106.890625 115.804688 111.449219 C 115.804688 116.003906 112.089844 119.714844 107.527344 119.714844 Z M 107.527344 106.113281 C 104.578125 106.113281 102.179688 108.507812 102.179688 111.449219 C 102.179688 114.390625 104.578125 116.785156 107.527344 116.785156 C 110.476562 116.785156 112.871094 114.390625 112.871094 111.449219 C 112.871094 108.507812 110.476562 106.113281 107.527344 106.113281 Z M 107.527344 106.113281 " fill-opacity="1" fill-rule="nonzero"/></svg>