<svg xmlns="http://www.w3.org/2000/svg" xmlns:xlink="http://www.w3.org/1999/xlink" width="200" zoomAndPan="magnify" viewBox="0 0 150 149.999998" height="200" preserveAspectRatio="xMidYMid meet" version="1.0"><defs><clipPath id="id1"><path d="M 57 111 L 91 111 L 91 145.5 L 57 145.5 Z M 57 111 " clip-rule="nonzero"/></clipPath><clipPath id="id2"><path d="M 7.207031 0 L 138.980469 0 L 138.980469 141.980469 L 7.207031 141.980469 Z M 7.207031 0 " clip-rule="nonzero"/></clipPath></defs><path fill="#f6b737" d="M 111.871094 65.515625 C 109.773438 74.707031 105.035156 82.4375 98.835938 89.429688 C 95.679688 92.996094 92.398438 96.523438 90.128906 100.746094 C 88.945312 102.949219 88.078125 105.308594 87.539062 107.75 C 87 110.191406 87.132812 112.632812 86.765625 115.078125 C 86.148438 119.246094 82.179688 119.925781 78.601562 119.90625 C 73.535156 119.875 68.457031 119.363281 63.484375 118.398438 C 63.054688 118.566406 62.46875 118.429688 62.390625 117.90625 C 62.035156 115.542969 61.691406 113.171875 61.214844 110.824219 C 60.234375 105.988281 58.632812 101.316406 55.554688 97.386719 C 52.800781 93.875 49.359375 90.976562 46.359375 87.683594 C 40.582031 81.339844 37.25 73.121094 36.546875 64.605469 C 35.902344 56.867188 37.464844 48.785156 41.554688 42.128906 C 45.914062 35.035156 52.957031 30.460938 60.839844 28.082031 C 69.535156 25.464844 79.5 24.699219 88.488281 25.933594 C 97.125 27.125 105.773438 31.257812 109.902344 39.300781 C 113.953125 47.191406 113.800781 57.054688 111.871094 65.515625 " fill-opacity="1" fill-rule="nonzero"/><path fill="#f59a3d" d="M 86.71875 93.722656 C 83.527344 92.59375 82.984375 88.066406 79.988281 91.390625 C 79.667969 91.746094 76.933594 105.980469 77.101562 106.625 C 79.570312 116.011719 91.542969 95.429688 86.71875 93.722656 Z M 82.875 35.234375 C 84.71875 34.179688 90.839844 35 92.320312 32.851562 C 94.675781 29.433594 89.398438 28.109375 86.78125 27.804688 C 79.058594 26.902344 80.082031 36.824219 82.875 35.234375 Z M 107.835938 49.875 C 107.855469 61.550781 104 75.824219 96.066406 84.730469 C 93.773438 87.304688 89.121094 91.710938 86.179688 87.660156 C 84.492188 85.335938 86.757812 74.152344 86.664062 71.46875 C 86.425781 64.402344 84.84375 57.679688 84.03125 50.699219 C 83.355469 44.882812 84.203125 42.996094 89.628906 40.664062 C 99.796875 36.285156 107.816406 37.132812 107.835938 49.875 " fill-opacity="1" fill-rule="nonzero"/><g clip-path="url(#id1)"><path fill="#c49261" d="M 90.601562 127.859375 C 90.503906 130.035156 89.234375 132.179688 87.125 132.585938 C 87.871094 134.699219 86.683594 136.960938 84.859375 138.253906 C 84.910156 140.25 84.394531 142.070312 82.644531 143.433594 C 80.636719 144.996094 77.917969 145.453125 75.4375 145.472656 C 71.90625 145.5 64.320312 143.820312 64.648438 139.203125 C 63.441406 138.902344 62.25 138.457031 61.359375 137.617188 C 60.4375 136.746094 59.992188 135.507812 60.511719 134.300781 C 60.859375 133.5 61.472656 132.960938 62.1875 132.558594 C 60.09375 131.601562 58.390625 129.941406 58.070312 127.515625 C 57.792969 125.429688 58.902344 123.40625 60.757812 122.585938 C 59.164062 120.703125 57.722656 118.546875 58.015625 115.972656 C 58.207031 114.289062 59.308594 112.839844 60.820312 112.289062 C 60.90625 112.140625 61.054688 112.035156 61.257812 112.058594 C 61.363281 112.074219 61.46875 112.085938 61.574219 112.097656 C 61.863281 112.054688 62.167969 112.039062 62.480469 112.0625 C 62.667969 112.078125 62.816406 112.148438 62.929688 112.253906 C 66.148438 112.613281 69.378906 112.847656 72.621094 112.820312 C 76.324219 112.785156 79.910156 112.265625 83.574219 111.863281 C 86.003906 111.601562 88.75 112.230469 89.46875 114.886719 C 90.09375 117.222656 89.433594 119.644531 88.109375 121.59375 C 89.84375 123.167969 90.710938 125.5 90.601562 127.859375 " fill-opacity="1" fill-rule="nonzero"/></g><g clip-path="url(#id2)"><path fill="#2e2e30" d="M 83.714844 138.777344 C 81.199219 140.503906 78.414062 140.652344 75.445312 140.648438 C 72.152344 140.640625 69.132812 140.191406 65.957031 139.351562 C 65.492188 139.230469 65.167969 139.917969 65.621094 140.148438 C 68.726562 141.75 72.589844 141.765625 76.003906 141.792969 C 78.847656 141.820312 82.226562 141.773438 84.34375 139.59375 C 84.742188 139.183594 84.214844 138.433594 83.714844 138.777344 Z M 85.652344 132.078125 C 83.925781 132.3125 82.238281 132.96875 80.511719 133.285156 C 78.644531 133.628906 76.75 133.824219 74.851562 133.882812 C 71.167969 133.992188 67.535156 133.488281 63.957031 132.632812 C 63.328125 132.480469 63.070312 133.410156 63.691406 133.597656 C 67.398438 134.714844 71.277344 135.171875 75.144531 135.097656 C 78.605469 135.027344 82.996094 134.78125 86.113281 133.164062 C 86.765625 132.828125 86.265625 131.996094 85.652344 132.078125 Z M 74.886719 124.277344 C 78.457031 124.101562 82.824219 123.941406 86.109375 122.4375 C 86.554688 122.230469 86.335938 121.46875 85.855469 121.507812 C 84.125 121.632812 82.414062 122.191406 80.699219 122.476562 C 78.675781 122.8125 76.632812 123.042969 74.585938 123.132812 C 70.738281 123.304688 67.03125 122.78125 63.210938 122.535156 C 62.671875 122.5 62.578125 123.328125 63.085938 123.464844 C 66.828125 124.46875 71.042969 124.46875 74.886719 124.277344 Z M 93.191406 64.089844 C 93.128906 63.773438 92.707031 63.550781 92.058594 63.496094 C 91.96875 63.488281 91.875 63.484375 91.785156 63.484375 C 90.328125 63.484375 88.855469 64.441406 87.855469 65.433594 C 88.558594 65.679688 89.289062 65.804688 89.988281 65.804688 C 90.804688 65.804688 91.539062 65.636719 92.175781 65.300781 C 92.964844 64.882812 93.253906 64.390625 93.191406 64.089844 Z M 84.484375 65.757812 L 84.433594 65.738281 L 84.394531 65.707031 C 83.96875 65.347656 83.570312 64.945312 83.214844 64.511719 C 82.59375 63.769531 82.058594 62.910156 81.625 61.957031 C 80.539062 62.699219 79.300781 63.09375 78.019531 63.09375 C 76.015625 63.09375 74.101562 62.113281 72.832031 60.453125 C 71.34375 62.320312 69.539062 63.347656 67.714844 63.347656 C 67.050781 63.347656 66.382812 63.210938 65.726562 62.9375 C 65.488281 64.222656 65.191406 65.257812 64.800781 66.179688 C 64.722656 66.367188 64.589844 66.59375 64.453125 66.832031 C 64.261719 67.152344 63.949219 67.691406 63.972656 67.875 C 64.003906 68.144531 64.519531 68.742188 64.894531 69.179688 C 65.222656 69.5625 65.53125 69.921875 65.691406 70.210938 C 66.140625 71.046875 66.539062 72.003906 66.898438 73.140625 C 68.246094 77.398438 68.472656 82.019531 68.578125 86.011719 C 68.691406 90.371094 68.582031 94.808594 68.472656 99.097656 C 68.445312 100.101562 68.421875 101.101562 68.398438 102.101562 C 68.34375 104.597656 68.265625 107.199219 68.175781 109.824219 C 68.171875 109.972656 68.179688 110.246094 68.1875 110.585938 C 68.195312 110.976562 68.199219 111.363281 68.203125 111.738281 C 70.257812 111.84375 72.3125 111.929688 74.386719 111.882812 C 76.925781 111.824219 79.433594 111.589844 81.941406 111.316406 C 81.730469 110.179688 81.691406 108.667969 81.6875 107.140625 C 81.6875 106.707031 81.683594 106.335938 81.671875 106.113281 C 81.375 101.210938 81.375 95.917969 81.664062 89.445312 C 81.71875 88.242188 81.765625 87.03125 81.8125 85.820312 C 81.964844 81.867188 82.117188 77.785156 82.570312 73.824219 C 82.734375 72.371094 82.9375 71.199219 83.207031 70.144531 C 83.289062 69.808594 83.476562 69.316406 83.691406 68.75 C 84.003906 67.9375 84.730469 66.027344 84.484375 65.757812 Z M 64.28125 59.355469 C 64.300781 59.226562 64.320312 59.089844 64.34375 58.949219 C 64.601562 57.160156 64.996094 54.464844 64.257812 53.1875 C 64.023438 52.78125 63.6875 52.539062 63.359375 52.539062 C 63.117188 52.539062 62.878906 52.667969 62.648438 52.917969 C 62.148438 53.46875 62.460938 54.695312 62.644531 55.429688 L 62.683594 55.585938 C 63.078125 57.160156 63.601562 58.402344 64.28125 59.355469 Z M 73.09375 56.464844 C 73.710938 55.441406 74.382812 54.234375 74.496094 53.121094 C 74.542969 52.636719 74.371094 51.84375 74.066406 51.503906 C 73.992188 51.425781 73.921875 51.382812 73.855469 51.382812 C 73.789062 51.382812 73.609375 51.425781 73.332031 51.804688 C 72.453125 53 72.671875 54.894531 73.09375 56.464844 Z M 82.570312 58.277344 C 84.054688 56.378906 84.714844 54.859375 84.53125 53.757812 C 84.421875 53.097656 83.828125 52.519531 83.265625 52.519531 C 82.808594 52.519531 82.570312 52.914062 82.449219 53.246094 C 82.050781 54.355469 82.089844 56.046875 82.570312 58.277344 Z M 60.699219 68.085938 C 60.320312 67.957031 59.925781 67.890625 59.53125 67.890625 C 58.792969 67.890625 58.136719 68.125 57.652344 68.554688 C 57.988281 68.714844 58.34375 68.796875 58.710938 68.796875 C 59.476562 68.796875 60.171875 68.457031 60.699219 68.085938 Z M 95.070312 63.785156 C 95.242188 65.21875 94.148438 67.054688 91.785156 67.628906 C 91.265625 67.753906 90.707031 67.820312 90.117188 67.820312 C 89.742188 67.820312 89.351562 67.792969 88.957031 67.742188 C 88.714844 67.710938 88.3125 67.558594 87.847656 67.386719 C 87.394531 67.214844 86.773438 66.984375 86.546875 66.984375 C 86.035156 67.125 85.328125 68.304688 84.804688 73.097656 L 84.769531 73.386719 C 83.480469 84.554688 83.140625 95.863281 83.761719 106.996094 C 83.765625 107.113281 83.796875 107.367188 83.835938 107.691406 C 83.976562 108.859375 84.105469 110.078125 84.105469 111.078125 C 84.546875 111.03125 84.984375 110.980469 85.425781 110.933594 C 86.117188 110.855469 86.261719 112.011719 85.589844 112.136719 C 81.921875 112.820312 78.109375 113.03125 74.386719 113.105469 C 70.683594 113.175781 66.832031 113.152344 63.179688 112.503906 C 62.609375 112.402344 62.753906 111.488281 63.316406 111.507812 C 64.214844 111.535156 65.113281 111.578125 66.011719 111.625 C 66.015625 109.789062 66.136719 107.242188 66.359375 103.796875 C 66.421875 102.871094 66.46875 102.140625 66.476562 101.824219 C 66.550781 97.585938 66.621094 92.585938 66.550781 87.644531 C 66.492188 83.449219 66.265625 78.972656 65.03125 74.6875 C 64.992188 74.550781 64.945312 74.378906 64.890625 74.179688 C 64.554688 72.929688 63.765625 70.007812 62.746094 69.578125 C 62.742188 69.578125 62.722656 69.570312 62.671875 69.570312 C 62.371094 69.570312 61.746094 69.828125 61.144531 70.078125 C 60.273438 70.4375 59.285156 70.847656 58.507812 70.847656 C 58.453125 70.847656 58.398438 70.84375 58.34375 70.839844 C 57.222656 70.75 55.761719 70.289062 55.335938 69.285156 C 55.15625 68.871094 55.097656 68.195312 55.808594 67.328125 C 56.636719 66.328125 57.898438 65.777344 59.363281 65.777344 C 59.519531 65.777344 59.675781 65.785156 59.832031 65.796875 C 60.171875 65.824219 60.578125 65.988281 60.972656 66.144531 C 61.34375 66.292969 61.726562 66.445312 61.964844 66.445312 C 61.976562 66.445312 61.992188 66.445312 62.007812 66.445312 C 62.484375 66.390625 62.761719 65.695312 63.027344 65.027344 L 63.183594 64.632812 C 63.4375 64.007812 63.789062 63.148438 63.789062 62.535156 C 63.789062 61.730469 63.625 61.535156 63.226562 61.066406 C 63.074219 60.886719 62.90625 60.6875 62.707031 60.410156 C 61.578125 58.839844 59.839844 54.875 60.71875 52.382812 C 61.058594 51.414062 61.753906 50.78125 62.785156 50.496094 C 63.097656 50.410156 63.394531 50.367188 63.671875 50.367188 C 64.335938 50.367188 64.894531 50.605469 65.339844 51.082031 C 66.628906 52.460938 66.570312 55.46875 66.484375 56.699219 C 66.464844 56.984375 66.371094 57.484375 66.261719 58.058594 C 66.105469 58.902344 65.773438 60.660156 65.953125 60.945312 C 66.265625 61.386719 66.871094 61.480469 67.324219 61.480469 C 68.214844 61.480469 69.28125 61.121094 69.796875 60.773438 C 70.425781 60.347656 71.171875 59.671875 71.421875 59.109375 C 71.703125 58.472656 71.578125 58.054688 71.382812 57.417969 C 71.304688 57.15625 71.214844 56.855469 71.144531 56.507812 C 70.699219 54.230469 70.851562 52.429688 71.585938 51.160156 C 72.121094 50.242188 73.164062 49.316406 74.296875 49.316406 C 74.734375 49.316406 75.152344 49.457031 75.527344 49.726562 C 77.179688 50.898438 76.585938 53.421875 76.25 54.449219 C 76.097656 54.917969 75.652344 55.609375 75.183594 56.339844 C 74.648438 57.164062 73.914062 58.296875 73.953125 58.722656 C 74.03125 59.601562 75.910156 60.753906 76.859375 61.023438 C 77.164062 61.105469 77.558594 61.152344 77.96875 61.152344 C 79.257812 61.152344 80.71875 60.722656 80.886719 59.773438 C 80.996094 59.152344 80.765625 58.28125 80.546875 57.441406 C 80.355469 56.71875 80.15625 55.96875 80.15625 55.320312 C 80.15625 54.269531 80.5 53.0625 81.082031 52.089844 C 81.75 50.972656 82.613281 50.355469 83.507812 50.355469 C 84.316406 50.355469 85.089844 50.851562 85.804688 51.824219 C 86.8125 53.203125 86.75 55.105469 85.621094 57.320312 L 84.203125 59.472656 C 84.050781 59.660156 83.917969 59.8125 83.804688 59.941406 C 83.316406 60.503906 83.289062 60.535156 83.640625 61.492188 C 83.964844 62.371094 84.695312 63.21875 85.101562 63.644531 C 85.332031 63.886719 85.722656 64.292969 85.851562 64.292969 C 85.914062 64.292969 86.054688 64.199219 86.21875 64.085938 C 86.347656 64 86.5 63.894531 86.695312 63.777344 C 87.078125 63.550781 87.433594 63.308594 87.777344 63.074219 C 88.769531 62.398438 89.707031 61.757812 91.140625 61.570312 C 91.417969 61.535156 91.6875 61.519531 91.941406 61.519531 C 94.046875 61.519531 94.9375 62.691406 95.070312 63.785156 Z M 122.234375 101.222656 C 120.148438 99.5 117.890625 98 115.816406 96.261719 C 113.824219 94.601562 112.019531 92.675781 109.933594 91.144531 C 109.269531 90.65625 108.335938 91.613281 108.796875 92.273438 C 110.328125 94.460938 112.496094 96.234375 114.554688 97.914062 C 116.632812 99.609375 118.804688 101.339844 121.199219 102.558594 C 122.011719 102.96875 123.019531 101.871094 122.234375 101.222656 Z M 138.53125 81.574219 C 135.886719 79.648438 132.890625 78.164062 129.996094 76.652344 C 127.34375 75.265625 124.320312 73.226562 121.332031 72.753906 C 120.519531 72.621094 119.679688 73.613281 120.441406 74.28125 C 122.730469 76.292969 126.0625 77.382812 128.765625 78.753906 C 131.691406 80.242188 134.542969 81.9375 137.5625 83.222656 C 138.691406 83.703125 139.539062 82.308594 138.53125 81.574219 Z M 123.066406 42.683594 C 125.613281 42.273438 128.113281 41.386719 130.589844 40.667969 C 133.066406 39.949219 135.648438 39.347656 138.039062 38.382812 C 139.101562 37.957031 138.714844 36.453125 137.5625 36.65625 C 134.925781 37.128906 132.316406 38.027344 129.742188 38.761719 C 127.277344 39.46875 124.738281 40.058594 122.378906 41.058594 C 121.378906 41.480469 122.15625 42.828125 123.066406 42.683594 Z M 114.445312 9.875 C 115.089844 8.984375 113.628906 8.167969 112.984375 9.019531 C 111.171875 11.417969 109.316406 13.785156 107.414062 16.113281 C 105.6875 18.226562 103.742188 20.242188 102.214844 22.503906 C 101.664062 23.320312 102.855469 24.140625 103.535156 23.519531 C 105.703125 21.539062 107.503906 19.007812 109.308594 16.707031 C 111.070312 14.464844 112.777344 12.183594 114.445312 9.875 Z M 74.386719 18.222656 C 74.75 15.40625 74.273438 12.351562 74.214844 9.511719 C 74.152344 6.609375 74.179688 3.703125 74.15625 0.800781 C 74.148438 -0.277344 72.570312 -0.253906 72.492188 0.800781 C 72.273438 3.800781 72.230469 6.816406 72.242188 9.824219 C 72.253906 12.609375 72.039062 15.730469 72.710938 18.449219 C 72.960938 19.457031 74.273438 19.105469 74.386719 18.222656 Z M 35.160156 21.96875 C 33.402344 19.664062 31.734375 17.148438 29.738281 15.042969 C 29.054688 14.320312 27.855469 15.25 28.363281 16.101562 C 29.914062 18.699219 31.96875 21.085938 33.789062 23.5 C 35.519531 25.792969 37.152344 28.410156 39.222656 30.410156 C 39.929688 31.089844 41.027344 30.230469 40.566406 29.375 C 39.152344 26.738281 36.972656 24.347656 35.160156 21.96875 Z M 24.644531 53.273438 C 26.585938 53.519531 28.625 53.917969 30.582031 53.746094 C 31.636719 53.648438 31.917969 52.199219 30.839844 51.859375 C 29.160156 51.332031 27.320312 51.246094 25.582031 51.03125 C 23.5 50.773438 21.417969 50.5 19.34375 50.210938 C 15.617188 49.6875 11.902344 48.988281 8.160156 48.578125 C 7.046875 48.457031 6.84375 50.242188 7.898438 50.507812 C 11.644531 51.457031 15.523438 51.988281 19.34375 52.550781 C 21.105469 52.8125 22.875 53.050781 24.644531 53.273438 Z M 33.523438 84.917969 C 31.105469 86.574219 28.410156 87.832031 25.886719 89.320312 C 23.546875 90.699219 21.179688 92.71875 18.632812 93.640625 C 17.78125 93.953125 17.300781 92.8125 17.8125 92.234375 C 18.761719 91.164062 20.125 90.441406 21.320312 89.671875 C 22.5625 88.878906 23.8125 88.109375 25.078125 87.359375 C 27.574219 85.890625 30.125 84.335938 32.875 83.382812 C 33.832031 83.046875 34.265625 84.414062 33.523438 84.917969 " fill-opacity="1" fill-rule="nonzero"/></g><path fill="#ffffff" d="M 47.828125 74.90625 C 47.386719 73.65625 47.222656 72.367188 46.511719 71.238281 C 46.335938 70.957031 45.914062 71.011719 45.816406 71.328125 C 45.023438 73.925781 46.171875 77.074219 47.476562 79.34375 C 48.550781 81.203125 50.25 84.238281 52.585938 84.507812 C 52.871094 84.539062 53.132812 84.234375 53.128906 83.96875 C 53.074219 81.871094 50.722656 80.113281 49.648438 78.457031 C 48.925781 77.34375 48.273438 76.160156 47.828125 74.90625 Z M 55.417969 41.957031 C 52.269531 43.882812 50.03125 46.992188 48.664062 50.375 C 47.027344 54.425781 47.160156 58.667969 46.167969 62.835938 C 45.9375 63.8125 44.277344 63.894531 44.105469 62.835938 C 43.375 58.296875 44.472656 53.039062 46.296875 48.863281 C 47.945312 45.089844 50.644531 41.972656 54.289062 40.027344 C 55.5625 39.347656 56.652344 41.203125 55.417969 41.957031 " fill-opacity="1" fill-rule="nonzero"/></svg>