<svg xmlns="http://www.w3.org/2000/svg" xmlns:xlink="http://www.w3.org/1999/xlink" width="1200" zoomAndPan="magnify" viewBox="0 0 900 899.99999" height="1200" preserveAspectRatio="xMidYMid meet" version="1.0"><defs><g/></defs><g fill="#1d4d42" fill-opacity="1"><g transform="translate(153.429938, 193.510495)"><g><path d="M 11.578125 0 L 1.4375 -94.71875 L 19.953125 -94.71875 L 25.25 -34.953125 L 30.546875 -94.71875 L 48.1875 -94.71875 L 53.265625 -34.953125 L 58.328125 -94.71875 L 77.078125 -94.71875 L 66.703125 0 L 44 0 L 39.25 -45.65625 L 34.734375 0 Z M 11.578125 0 "/></g></g></g><g fill="#1d4d42" fill-opacity="1"><g transform="translate(231.940169, 193.510495)"><g><path d="M 4.1875 0 L 4.1875 -94.71875 L 42.125 -94.71875 L 42.125 -76.421875 L 23.484375 -76.421875 L 23.484375 -58 L 41.34375 -58 L 41.34375 -40.140625 L 23.484375 -40.140625 L 23.484375 -18.421875 L 43.328125 -18.421875 L 43.328125 0 Z M 4.1875 0 "/></g></g></g><g fill="#1d4d42" fill-opacity="1"><g transform="translate(277.370249, 193.510495)"><g/></g></g><g fill="#1d4d42" fill-opacity="1"><g transform="translate(303.17277, 193.510495)"><g><path d="M 1.65625 0 L 10.8125 -94.71875 L 42.890625 -94.71875 L 51.9375 0 L 33.96875 0 L 32.640625 -15.328125 L 21.171875 -15.328125 L 20.0625 0 Z M 22.609375 -30.4375 L 31.203125 -30.4375 L 27.015625 -78.625 L 26.140625 -78.625 Z M 22.609375 -30.4375 "/></g></g></g><g fill="#1d4d42" fill-opacity="1"><g transform="translate(356.652353, 193.510495)"><g><path d="M 4.1875 -94.71875 L 33.296875 -94.71875 C 37.929688 -94.71875 41.515625 -93.671875 44.046875 -91.578125 C 46.585938 -89.484375 48.296875 -86.539062 49.171875 -82.75 C 50.054688 -78.96875 50.5 -74.132812 50.5 -68.25 C 50.5 -62.882812 49.800781 -58.691406 48.40625 -55.671875 C 47.007812 -52.660156 44.582031 -50.570312 41.125 -49.40625 C 43.988281 -48.8125 46.0625 -47.375 47.34375 -45.09375 C 48.632812 -42.820312 49.28125 -39.738281 49.28125 -35.84375 L 49.0625 0 L 30.546875 0 L 30.546875 -37.046875 C 30.546875 -39.691406 30.03125 -41.378906 29 -42.109375 C 27.96875 -42.847656 26.09375 -43.21875 23.375 -43.21875 L 23.375 0 L 4.1875 0 Z M 28 -59.65625 C 30.65625 -59.65625 31.984375 -62.519531 31.984375 -68.25 C 31.984375 -70.75 31.867188 -72.625 31.640625 -73.875 C 31.421875 -75.125 31.015625 -75.988281 30.421875 -76.46875 C 29.835938 -76.945312 28.992188 -77.1875 27.890625 -77.1875 L 23.484375 -77.1875 L 23.484375 -59.65625 Z M 28 -59.65625 "/></g></g></g><g fill="#1d4d42" fill-opacity="1"><g transform="translate(409.249789, 193.510495)"><g><path d="M 4.1875 0 L 4.1875 -94.71875 L 42.125 -94.71875 L 42.125 -76.421875 L 23.484375 -76.421875 L 23.484375 -58 L 41.34375 -58 L 41.34375 -40.140625 L 23.484375 -40.140625 L 23.484375 -18.421875 L 43.328125 -18.421875 L 43.328125 0 Z M 4.1875 0 "/></g></g></g><g fill="#1d4d42" fill-opacity="1"><g transform="translate(454.67986, 193.510495)"><g/></g></g><g fill="#1d4d42" fill-opacity="1"><g transform="translate(480.482371, 193.510495)"><g><path d="M 4.1875 0 L 4.1875 -94.71875 L 23.046875 -94.71875 L 23.046875 -60.859375 L 31.984375 -60.859375 L 31.984375 -94.71875 L 50.828125 -94.71875 L 50.828125 0 L 31.984375 0 L 31.984375 -43 L 23.046875 -43 L 23.046875 0 Z M 4.1875 0 "/></g></g></g><g fill="#1d4d42" fill-opacity="1"><g transform="translate(535.505673, 193.510495)"><g><path d="M 3.3125 0 L 3.3125 -94.71875 L 21.609375 -94.71875 L 21.609375 0 Z M 3.3125 0 "/></g></g></g><g fill="#1d4d42" fill-opacity="1"><g transform="translate(560.5363, 193.510495)"><g><path d="M 4.1875 -94.71875 L 33.296875 -94.71875 C 37.929688 -94.71875 41.515625 -93.671875 44.046875 -91.578125 C 46.585938 -89.484375 48.296875 -86.539062 49.171875 -82.75 C 50.054688 -78.96875 50.5 -74.132812 50.5 -68.25 C 50.5 -62.882812 49.800781 -58.691406 48.40625 -55.671875 C 47.007812 -52.660156 44.582031 -50.570312 41.125 -49.40625 C 43.988281 -48.8125 46.0625 -47.375 47.34375 -45.09375 C 48.632812 -42.820312 49.28125 -39.738281 49.28125 -35.84375 L 49.0625 0 L 30.546875 0 L 30.546875 -37.046875 C 30.546875 -39.691406 30.03125 -41.378906 29 -42.109375 C 27.96875 -42.847656 26.09375 -43.21875 23.375 -43.21875 L 23.375 0 L 4.1875 0 Z M 28 -59.65625 C 30.65625 -59.65625 31.984375 -62.519531 31.984375 -68.25 C 31.984375 -70.75 31.867188 -72.625 31.640625 -73.875 C 31.421875 -75.125 31.015625 -75.988281 30.421875 -76.46875 C 29.835938 -76.945312 28.992188 -77.1875 27.890625 -77.1875 L 23.484375 -77.1875 L 23.484375 -59.65625 Z M 28 -59.65625 "/></g></g></g><g fill="#1d4d42" fill-opacity="1"><g transform="translate(613.133755, 193.510495)"><g><path d="M 3.3125 0 L 3.3125 -94.71875 L 21.609375 -94.71875 L 21.609375 0 Z M 3.3125 0 "/></g></g></g><g fill="#1d4d42" fill-opacity="1"><g transform="translate(638.164421, 193.510495)"><g><path d="M 4.1875 0 L 4.1875 -94.71875 L 23.703125 -94.71875 L 32.421875 -49.40625 L 32.421875 -94.71875 L 50.71875 -94.71875 L 50.71875 0 L 32.203125 0 L 22.71875 -47.421875 L 22.71875 0 Z M 4.1875 0 "/></g></g></g><g fill="#1d4d42" fill-opacity="1"><g transform="translate(693.077487, 193.510495)"><g><path d="M 23.703125 0.875 C 16.867188 0.875 11.78125 -1.53125 8.4375 -6.34375 C 5.09375 -11.15625 3.421875 -18.453125 3.421875 -28.234375 L 3.421875 -69.03125 C 3.421875 -77.769531 5.367188 -84.378906 9.265625 -88.859375 C 13.160156 -93.347656 18.96875 -95.59375 26.6875 -95.59375 C 32.9375 -95.59375 37.785156 -94.34375 41.234375 -91.84375 C 44.691406 -89.351562 47.082031 -85.71875 48.40625 -80.9375 C 49.726562 -76.15625 50.390625 -70.015625 50.390625 -62.515625 L 31.859375 -62.515625 L 31.859375 -71.015625 C 31.859375 -73.285156 31.546875 -75.046875 30.921875 -76.296875 C 30.304688 -77.546875 29.1875 -78.171875 27.5625 -78.171875 C 23.957031 -78.171875 22.15625 -75.820312 22.15625 -71.125 L 22.15625 -25.25 C 22.15625 -22.382812 22.523438 -20.21875 23.265625 -18.75 C 24.003906 -17.28125 25.289062 -16.546875 27.125 -16.546875 C 28.957031 -16.546875 30.242188 -17.28125 30.984375 -18.75 C 31.722656 -20.21875 32.09375 -22.382812 32.09375 -25.25 L 32.09375 -38.8125 L 27.015625 -38.8125 L 27.015625 -55.140625 L 50.171875 -55.140625 L 50.171875 0 L 42.5625 0 L 39.359375 -7.9375 C 35.984375 -2.0625 30.765625 0.875 23.703125 0.875 Z M 23.703125 0.875 "/></g></g></g><path fill="#f0ae35" d="M 268.867188 226.472656 L 631.121094 226.472656 C 638.703125 226.472656 644.851562 232.621094 644.851562 240.203125 L 644.851562 267.664062 C 644.851562 275.25 638.703125 281.394531 631.121094 281.394531 L 268.867188 281.394531 C 265.226562 281.394531 261.734375 279.949219 259.160156 277.375 C 256.585938 274.800781 255.136719 271.308594 255.136719 267.664062 L 255.136719 240.203125 C 255.136719 236.5625 256.585938 233.070312 259.160156 230.496094 C 261.734375 227.917969 265.226562 226.472656 268.867188 226.472656 " fill-opacity="1" fill-rule="nonzero"/><g fill="#1d4d42" fill-opacity="1"><g transform="translate(268.719704, 266.340205)"><g><path d="M 6.953125 -20.796875 L 6.953125 -12.515625 L 18.859375 -12.515625 L 18.859375 -9.59375 L 6.953125 -9.59375 L 6.953125 0 L 3.5625 0 L 3.5625 -23.75 L 20.3125 -23.75 L 20.3125 -20.796875 Z M 6.953125 -20.796875 "/></g></g></g><g fill="#1d4d42" fill-opacity="1"><g transform="translate(290.262713, 266.340205)"><g><path d="M 6.203125 -14.953125 C 6.773438 -15.992188 7.613281 -16.785156 8.71875 -17.328125 C 9.820312 -17.867188 11.164062 -18.140625 12.75 -18.140625 L 12.75 -15 C 12.570312 -15.019531 12.328125 -15.03125 12.015625 -15.03125 C 10.242188 -15.03125 8.851562 -14.503906 7.84375 -13.453125 C 6.84375 -12.398438 6.34375 -10.898438 6.34375 -8.953125 L 6.34375 0 L 3.09375 0 L 3.09375 -17.984375 L 6.203125 -17.984375 Z M 6.203125 -14.953125 "/></g></g></g><g fill="#1d4d42" fill-opacity="1"><g transform="translate(304.172379, 266.340205)"><g><path d="M 10.78125 0.203125 C 9 0.203125 7.394531 -0.191406 5.96875 -0.984375 C 4.539062 -1.773438 3.425781 -2.863281 2.625 -4.25 C 1.820312 -5.644531 1.421875 -7.222656 1.421875 -8.984375 C 1.421875 -10.753906 1.820312 -12.332031 2.625 -13.71875 C 3.425781 -15.113281 4.539062 -16.195312 5.96875 -16.96875 C 7.394531 -17.75 9 -18.140625 10.78125 -18.140625 C 12.570312 -18.140625 14.171875 -17.75 15.578125 -16.96875 C 16.992188 -16.195312 18.101562 -15.113281 18.90625 -13.71875 C 19.707031 -12.332031 20.109375 -10.753906 20.109375 -8.984375 C 20.109375 -7.222656 19.707031 -5.644531 18.90625 -4.25 C 18.101562 -2.863281 16.992188 -1.773438 15.578125 -0.984375 C 14.171875 -0.191406 12.570312 0.203125 10.78125 0.203125 Z M 10.78125 -2.640625 C 11.9375 -2.640625 12.972656 -2.90625 13.890625 -3.4375 C 14.804688 -3.96875 15.523438 -4.710938 16.046875 -5.671875 C 16.566406 -6.640625 16.828125 -7.742188 16.828125 -8.984375 C 16.828125 -10.234375 16.566406 -11.335938 16.046875 -12.296875 C 15.523438 -13.253906 14.804688 -13.992188 13.890625 -14.515625 C 12.972656 -15.035156 11.9375 -15.296875 10.78125 -15.296875 C 9.632812 -15.296875 8.601562 -15.035156 7.6875 -14.515625 C 6.769531 -13.992188 6.046875 -13.253906 5.515625 -12.296875 C 4.984375 -11.335938 4.71875 -10.234375 4.71875 -8.984375 C 4.71875 -7.742188 4.984375 -6.640625 5.515625 -5.671875 C 6.046875 -4.710938 6.769531 -3.96875 7.6875 -3.4375 C 8.601562 -2.90625 9.632812 -2.640625 10.78125 -2.640625 Z M 10.78125 -2.640625 "/></g></g></g><g fill="#1d4d42" fill-opacity="1"><g transform="translate(325.715388, 266.340205)"><g><path d="M 12.6875 -18.140625 C 14.96875 -18.140625 16.78125 -17.476562 18.125 -16.15625 C 19.476562 -14.832031 20.15625 -12.894531 20.15625 -10.34375 L 20.15625 0 L 16.890625 0 L 16.890625 -9.96875 C 16.890625 -11.707031 16.472656 -13.019531 15.640625 -13.90625 C 14.804688 -14.789062 13.609375 -15.234375 12.046875 -15.234375 C 10.273438 -15.234375 8.878906 -14.71875 7.859375 -13.6875 C 6.847656 -12.65625 6.34375 -11.179688 6.34375 -9.265625 L 6.34375 0 L 3.09375 0 L 3.09375 -17.984375 L 6.203125 -17.984375 L 6.203125 -15.265625 C 6.859375 -16.191406 7.742188 -16.898438 8.859375 -17.390625 C 9.984375 -17.890625 11.257812 -18.140625 12.6875 -18.140625 Z M 12.6875 -18.140625 "/></g></g></g><g fill="#1d4d42" fill-opacity="1"><g transform="translate(348.818996, 266.340205)"><g><path d="M 13.203125 -1.046875 C 12.722656 -0.640625 12.128906 -0.328125 11.421875 -0.109375 C 10.722656 0.0976562 10.003906 0.203125 9.265625 0.203125 C 7.453125 0.203125 6.046875 -0.28125 5.046875 -1.25 C 4.054688 -2.226562 3.5625 -3.617188 3.5625 -5.421875 L 3.5625 -15.296875 L 0.515625 -15.296875 L 0.515625 -17.984375 L 3.5625 -17.984375 L 3.5625 -21.90625 L 6.8125 -21.90625 L 6.8125 -17.984375 L 11.96875 -17.984375 L 11.96875 -15.296875 L 6.8125 -15.296875 L 6.8125 -5.5625 C 6.8125 -4.59375 7.054688 -3.847656 7.546875 -3.328125 C 8.035156 -2.804688 8.734375 -2.546875 9.640625 -2.546875 C 10.628906 -2.546875 11.472656 -2.828125 12.171875 -3.390625 Z M 13.203125 -1.046875 "/></g></g></g><g fill="#1d4d42" fill-opacity="1"><g transform="translate(362.86436, 266.340205)"><g><path d="M 1.9375 -10.71875 L 11.0625 -10.71875 L 11.0625 -7.90625 L 1.9375 -7.90625 Z M 1.9375 -10.71875 "/></g></g></g><g fill="#1d4d42" fill-opacity="1"><g transform="translate(375.858019, 266.340205)"><g><path d="M 20.796875 -2.953125 L 20.796875 0 L 3.5625 0 L 3.5625 -23.75 L 20.3125 -23.75 L 20.3125 -20.796875 L 6.953125 -20.796875 L 6.953125 -13.5 L 18.859375 -13.5 L 18.859375 -10.625 L 6.953125 -10.625 L 6.953125 -2.953125 Z M 20.796875 -2.953125 "/></g></g></g><g fill="#1d4d42" fill-opacity="1"><g transform="translate(398.588441, 266.340205)"><g><path d="M 12.6875 -18.140625 C 14.96875 -18.140625 16.78125 -17.476562 18.125 -16.15625 C 19.476562 -14.832031 20.15625 -12.894531 20.15625 -10.34375 L 20.15625 0 L 16.890625 0 L 16.890625 -9.96875 C 16.890625 -11.707031 16.472656 -13.019531 15.640625 -13.90625 C 14.804688 -14.789062 13.609375 -15.234375 12.046875 -15.234375 C 10.273438 -15.234375 8.878906 -14.71875 7.859375 -13.6875 C 6.847656 -12.65625 6.34375 -11.179688 6.34375 -9.265625 L 6.34375 0 L 3.09375 0 L 3.09375 -17.984375 L 6.203125 -17.984375 L 6.203125 -15.265625 C 6.859375 -16.191406 7.742188 -16.898438 8.859375 -17.390625 C 9.984375 -17.890625 11.257812 -18.140625 12.6875 -18.140625 Z M 12.6875 -18.140625 "/></g></g></g><g fill="#1d4d42" fill-opacity="1"><g transform="translate(421.692049, 266.340205)"><g><path d="M 20.046875 -25.171875 L 20.046875 0 L 16.921875 0 L 16.921875 -2.84375 C 16.203125 -1.851562 15.285156 -1.097656 14.171875 -0.578125 C 13.066406 -0.0546875 11.847656 0.203125 10.515625 0.203125 C 8.773438 0.203125 7.210938 -0.179688 5.828125 -0.953125 C 4.453125 -1.722656 3.375 -2.800781 2.59375 -4.1875 C 1.8125 -5.582031 1.421875 -7.179688 1.421875 -8.984375 C 1.421875 -10.796875 1.8125 -12.390625 2.59375 -13.765625 C 3.375 -15.148438 4.453125 -16.222656 5.828125 -16.984375 C 7.210938 -17.753906 8.773438 -18.140625 10.515625 -18.140625 C 11.804688 -18.140625 12.992188 -17.894531 14.078125 -17.40625 C 15.160156 -16.925781 16.066406 -16.210938 16.796875 -15.265625 L 16.796875 -25.171875 Z M 10.78125 -2.640625 C 11.914062 -2.640625 12.945312 -2.90625 13.875 -3.4375 C 14.800781 -3.96875 15.523438 -4.710938 16.046875 -5.671875 C 16.566406 -6.640625 16.828125 -7.742188 16.828125 -8.984375 C 16.828125 -10.234375 16.566406 -11.335938 16.046875 -12.296875 C 15.523438 -13.253906 14.800781 -13.992188 13.875 -14.515625 C 12.945312 -15.035156 11.914062 -15.296875 10.78125 -15.296875 C 9.632812 -15.296875 8.601562 -15.035156 7.6875 -14.515625 C 6.769531 -13.992188 6.046875 -13.253906 5.515625 -12.296875 C 4.984375 -11.335938 4.71875 -10.234375 4.71875 -8.984375 C 4.71875 -7.742188 4.984375 -6.640625 5.515625 -5.671875 C 6.046875 -4.710938 6.769531 -3.96875 7.6875 -3.4375 C 8.601562 -2.90625 9.632812 -2.640625 10.78125 -2.640625 Z M 10.78125 -2.640625 "/></g></g></g><g fill="#1d4d42" fill-opacity="1"><g transform="translate(444.829574, 266.340205)"><g/></g></g><g fill="#1d4d42" fill-opacity="1"><g transform="translate(453.955671, 266.340205)"><g><path d="M 3.5625 -23.75 L 13.5625 -23.75 C 16.070312 -23.75 18.300781 -23.25 20.25 -22.25 C 22.195312 -21.257812 23.707031 -19.863281 24.78125 -18.0625 C 25.851562 -16.257812 26.390625 -14.195312 26.390625 -11.875 C 26.390625 -9.539062 25.851562 -7.472656 24.78125 -5.671875 C 23.707031 -3.878906 22.195312 -2.484375 20.25 -1.484375 C 18.300781 -0.492188 16.070312 0 13.5625 0 L 3.5625 0 Z M 13.359375 -2.953125 C 15.285156 -2.953125 16.976562 -3.320312 18.4375 -4.0625 C 19.894531 -4.8125 21.019531 -5.859375 21.8125 -7.203125 C 22.601562 -8.554688 23 -10.113281 23 -11.875 C 23 -13.632812 22.601562 -15.1875 21.8125 -16.53125 C 21.019531 -17.882812 19.894531 -18.929688 18.4375 -19.671875 C 16.976562 -20.421875 15.285156 -20.796875 13.359375 -20.796875 L 6.953125 -20.796875 L 6.953125 -2.953125 Z M 13.359375 -2.953125 "/></g></g></g><g fill="#1d4d42" fill-opacity="1"><g transform="translate(481.978565, 266.340205)"><g><path d="M 19.328125 -8.890625 C 19.328125 -8.640625 19.304688 -8.3125 19.265625 -7.90625 L 4.6875 -7.90625 C 4.882812 -6.320312 5.578125 -5.046875 6.765625 -4.078125 C 7.953125 -3.117188 9.425781 -2.640625 11.1875 -2.640625 C 13.34375 -2.640625 15.078125 -3.363281 16.390625 -4.8125 L 18.1875 -2.71875 C 17.375 -1.757812 16.359375 -1.03125 15.140625 -0.53125 C 13.929688 -0.0390625 12.582031 0.203125 11.09375 0.203125 C 9.195312 0.203125 7.507812 -0.1875 6.03125 -0.96875 C 4.5625 -1.75 3.425781 -2.835938 2.625 -4.234375 C 1.820312 -5.640625 1.421875 -7.222656 1.421875 -8.984375 C 1.421875 -10.722656 1.8125 -12.296875 2.59375 -13.703125 C 3.375 -15.109375 4.445312 -16.195312 5.8125 -16.96875 C 7.1875 -17.75 8.734375 -18.140625 10.453125 -18.140625 C 12.171875 -18.140625 13.703125 -17.75 15.046875 -16.96875 C 16.390625 -16.195312 17.4375 -15.109375 18.1875 -13.703125 C 18.945312 -12.296875 19.328125 -10.691406 19.328125 -8.890625 Z M 10.453125 -15.40625 C 8.890625 -15.40625 7.582031 -14.925781 6.53125 -13.96875 C 5.476562 -13.019531 4.863281 -11.78125 4.6875 -10.25 L 16.21875 -10.25 C 16.03125 -11.757812 15.410156 -12.992188 14.359375 -13.953125 C 13.304688 -14.921875 12.003906 -15.40625 10.453125 -15.40625 Z M 10.453125 -15.40625 "/></g></g></g><g fill="#1d4d42" fill-opacity="1"><g transform="translate(502.741294, 266.340205)"><g><path d="M 19 -17.984375 L 11.125 0 L 7.796875 0 L -0.0625 -17.984375 L 3.328125 -17.984375 L 9.5 -3.5625 L 15.8125 -17.984375 Z M 19 -17.984375 "/></g></g></g><g fill="#1d4d42" fill-opacity="1"><g transform="translate(521.705925, 266.340205)"><g><path d="M 19.328125 -8.890625 C 19.328125 -8.640625 19.304688 -8.3125 19.265625 -7.90625 L 4.6875 -7.90625 C 4.882812 -6.320312 5.578125 -5.046875 6.765625 -4.078125 C 7.953125 -3.117188 9.425781 -2.640625 11.1875 -2.640625 C 13.34375 -2.640625 15.078125 -3.363281 16.390625 -4.8125 L 18.1875 -2.71875 C 17.375 -1.757812 16.359375 -1.03125 15.140625 -0.53125 C 13.929688 -0.0390625 12.582031 0.203125 11.09375 0.203125 C 9.195312 0.203125 7.507812 -0.1875 6.03125 -0.96875 C 4.5625 -1.75 3.425781 -2.835938 2.625 -4.234375 C 1.820312 -5.640625 1.421875 -7.222656 1.421875 -8.984375 C 1.421875 -10.722656 1.8125 -12.296875 2.59375 -13.703125 C 3.375 -15.109375 4.445312 -16.195312 5.8125 -16.96875 C 7.1875 -17.75 8.734375 -18.140625 10.453125 -18.140625 C 12.171875 -18.140625 13.703125 -17.75 15.046875 -16.96875 C 16.390625 -16.195312 17.4375 -15.109375 18.1875 -13.703125 C 18.945312 -12.296875 19.328125 -10.691406 19.328125 -8.890625 Z M 10.453125 -15.40625 C 8.890625 -15.40625 7.582031 -14.925781 6.53125 -13.96875 C 5.476562 -13.019531 4.863281 -11.78125 4.6875 -10.25 L 16.21875 -10.25 C 16.03125 -11.757812 15.410156 -12.992188 14.359375 -13.953125 C 13.304688 -14.921875 12.003906 -15.40625 10.453125 -15.40625 Z M 10.453125 -15.40625 "/></g></g></g><g fill="#1d4d42" fill-opacity="1"><g transform="translate(542.468654, 266.340205)"><g><path d="M 3.09375 -25.171875 L 6.34375 -25.171875 L 6.34375 0 L 3.09375 0 Z M 3.09375 -25.171875 "/></g></g></g><g fill="#1d4d42" fill-opacity="1"><g transform="translate(551.93402, 266.340205)"><g><path d="M 10.78125 0.203125 C 9 0.203125 7.394531 -0.191406 5.96875 -0.984375 C 4.539062 -1.773438 3.425781 -2.863281 2.625 -4.25 C 1.820312 -5.644531 1.421875 -7.222656 1.421875 -8.984375 C 1.421875 -10.753906 1.820312 -12.332031 2.625 -13.71875 C 3.425781 -15.113281 4.539062 -16.195312 5.96875 -16.96875 C 7.394531 -17.75 9 -18.140625 10.78125 -18.140625 C 12.570312 -18.140625 14.171875 -17.75 15.578125 -16.96875 C 16.992188 -16.195312 18.101562 -15.113281 18.90625 -13.71875 C 19.707031 -12.332031 20.109375 -10.753906 20.109375 -8.984375 C 20.109375 -7.222656 19.707031 -5.644531 18.90625 -4.25 C 18.101562 -2.863281 16.992188 -1.773438 15.578125 -0.984375 C 14.171875 -0.191406 12.570312 0.203125 10.78125 0.203125 Z M 10.78125 -2.640625 C 11.9375 -2.640625 12.972656 -2.90625 13.890625 -3.4375 C 14.804688 -3.96875 15.523438 -4.710938 16.046875 -5.671875 C 16.566406 -6.640625 16.828125 -7.742188 16.828125 -8.984375 C 16.828125 -10.234375 16.566406 -11.335938 16.046875 -12.296875 C 15.523438 -13.253906 14.804688 -13.992188 13.890625 -14.515625 C 12.972656 -15.035156 11.9375 -15.296875 10.78125 -15.296875 C 9.632812 -15.296875 8.601562 -15.035156 7.6875 -14.515625 C 6.769531 -13.992188 6.046875 -13.253906 5.515625 -12.296875 C 4.984375 -11.335938 4.71875 -10.234375 4.71875 -8.984375 C 4.71875 -7.742188 4.984375 -6.640625 5.515625 -5.671875 C 6.046875 -4.710938 6.769531 -3.96875 7.6875 -3.4375 C 8.601562 -2.90625 9.632812 -2.640625 10.78125 -2.640625 Z M 10.78125 -2.640625 "/></g></g></g><g fill="#1d4d42" fill-opacity="1"><g transform="translate(573.477019, 266.340205)"><g><path d="M 12.625 -18.140625 C 14.363281 -18.140625 15.921875 -17.753906 17.296875 -16.984375 C 18.679688 -16.222656 19.757812 -15.148438 20.53125 -13.765625 C 21.3125 -12.390625 21.703125 -10.796875 21.703125 -8.984375 C 21.703125 -7.179688 21.3125 -5.582031 20.53125 -4.1875 C 19.757812 -2.800781 18.679688 -1.722656 17.296875 -0.953125 C 15.921875 -0.179688 14.363281 0.203125 12.625 0.203125 C 11.332031 0.203125 10.148438 -0.0390625 9.078125 -0.53125 C 8.003906 -1.03125 7.09375 -1.757812 6.34375 -2.71875 L 6.34375 6.578125 L 3.09375 6.578125 L 3.09375 -17.984375 L 6.203125 -17.984375 L 6.203125 -15.125 C 6.929688 -16.125 7.847656 -16.875 8.953125 -17.375 C 10.066406 -17.882812 11.289062 -18.140625 12.625 -18.140625 Z M 12.34375 -2.640625 C 13.5 -2.640625 14.535156 -2.90625 15.453125 -3.4375 C 16.367188 -3.96875 17.09375 -4.710938 17.625 -5.671875 C 18.15625 -6.640625 18.421875 -7.742188 18.421875 -8.984375 C 18.421875 -10.234375 18.15625 -11.335938 17.625 -12.296875 C 17.09375 -13.253906 16.367188 -13.992188 15.453125 -14.515625 C 14.535156 -15.035156 13.5 -15.296875 12.34375 -15.296875 C 11.21875 -15.296875 10.195312 -15.03125 9.28125 -14.5 C 8.363281 -13.96875 7.640625 -13.226562 7.109375 -12.28125 C 6.578125 -11.332031 6.3125 -10.234375 6.3125 -8.984375 C 6.3125 -7.742188 6.570312 -6.640625 7.09375 -5.671875 C 7.613281 -4.710938 8.335938 -3.96875 9.265625 -3.4375 C 10.191406 -2.90625 11.21875 -2.640625 12.34375 -2.640625 Z M 12.34375 -2.640625 "/></g></g></g><g fill="#1d4d42" fill-opacity="1"><g transform="translate(596.614573, 266.340205)"><g><path d="M 19.328125 -8.890625 C 19.328125 -8.640625 19.304688 -8.3125 19.265625 -7.90625 L 4.6875 -7.90625 C 4.882812 -6.320312 5.578125 -5.046875 6.765625 -4.078125 C 7.953125 -3.117188 9.425781 -2.640625 11.1875 -2.640625 C 13.34375 -2.640625 15.078125 -3.363281 16.390625 -4.8125 L 18.1875 -2.71875 C 17.375 -1.757812 16.359375 -1.03125 15.140625 -0.53125 C 13.929688 -0.0390625 12.582031 0.203125 11.09375 0.203125 C 9.195312 0.203125 7.507812 -0.1875 6.03125 -0.96875 C 4.5625 -1.75 3.425781 -2.835938 2.625 -4.234375 C 1.820312 -5.640625 1.421875 -7.222656 1.421875 -8.984375 C 1.421875 -10.722656 1.8125 -12.296875 2.59375 -13.703125 C 3.375 -15.109375 4.445312 -16.195312 5.8125 -16.96875 C 7.1875 -17.75 8.734375 -18.140625 10.453125 -18.140625 C 12.171875 -18.140625 13.703125 -17.75 15.046875 -16.96875 C 16.390625 -16.195312 17.4375 -15.109375 18.1875 -13.703125 C 18.945312 -12.296875 19.328125 -10.691406 19.328125 -8.890625 Z M 10.453125 -15.40625 C 8.890625 -15.40625 7.582031 -14.925781 6.53125 -13.96875 C 5.476562 -13.019531 4.863281 -11.78125 4.6875 -10.25 L 16.21875 -10.25 C 16.03125 -11.757812 15.410156 -12.992188 14.359375 -13.953125 C 13.304688 -14.921875 12.003906 -15.40625 10.453125 -15.40625 Z M 10.453125 -15.40625 "/></g></g></g><g fill="#1d4d42" fill-opacity="1"><g transform="translate(617.377302, 266.340205)"><g><path d="M 6.203125 -14.953125 C 6.773438 -15.992188 7.613281 -16.785156 8.71875 -17.328125 C 9.820312 -17.867188 11.164062 -18.140625 12.75 -18.140625 L 12.75 -15 C 12.570312 -15.019531 12.328125 -15.03125 12.015625 -15.03125 C 10.242188 -15.03125 8.851562 -14.503906 7.84375 -13.453125 C 6.84375 -12.398438 6.34375 -10.898438 6.34375 -8.953125 L 6.34375 0 L 3.09375 0 L 3.09375 -17.984375 L 6.203125 -17.984375 Z M 6.203125 -14.953125 "/></g></g></g></svg>