<svg xmlns="http://www.w3.org/2000/svg" xmlns:xlink="http://www.w3.org/1999/xlink" width="500" zoomAndPan="magnify" viewBox="0 0 375 149.999998" height="200" preserveAspectRatio="xMidYMid meet" version="1.0"><defs><g/></defs><g fill="#ffffff" fill-opacity="1"><g transform="translate(231.769838, 69.218568)"><g><path d="M 2.671875 -7.703125 L 4.21875 -7.703125 L 1.203125 0.921875 L -0.34375 0.921875 Z M 2.671875 -7.703125 "/></g></g></g><g fill="#ffffff" fill-opacity="1"><g transform="translate(235.559301, 69.218568)"><g><path d="M 5.03125 -3.90625 L 5.03125 -2.5 L 0.53125 -0.828125 L 0.53125 -2.171875 L 3.453125 -3.203125 L 0.53125 -4.234375 L 0.53125 -5.5625 Z M 5.03125 -3.90625 "/></g></g></g><g fill="#ffffff" fill-opacity="1"><g transform="translate(137.667183, 69.218568)"><g><path d="M 5.03125 -4.234375 L 2.125 -3.203125 L 5.03125 -2.171875 L 5.03125 -0.828125 L 0.53125 -2.5 L 0.53125 -3.90625 L 5.03125 -5.5625 Z M 5.03125 -4.234375 "/></g></g></g><g fill="#cad959" fill-opacity="1"><g transform="translate(147.666615, 69.537867)"><g><path d="M 6.703125 -4.53125 L 8.875 -4.53125 L 8.875 -0.9375 C 8.375 -0.570312 7.800781 -0.296875 7.15625 -0.109375 C 6.507812 0.078125 5.863281 0.171875 5.21875 0.171875 C 4.300781 0.171875 3.476562 -0.0195312 2.75 -0.40625 C 2.03125 -0.789062 1.460938 -1.328125 1.046875 -2.015625 C 0.628906 -2.703125 0.421875 -3.476562 0.421875 -4.34375 C 0.421875 -5.21875 0.628906 -6 1.046875 -6.6875 C 1.460938 -7.375 2.035156 -7.910156 2.765625 -8.296875 C 3.503906 -8.679688 4.335938 -8.875 5.265625 -8.875 C 6.078125 -8.875 6.804688 -8.734375 7.453125 -8.453125 C 8.097656 -8.179688 8.632812 -7.789062 9.0625 -7.28125 L 7.5 -5.859375 C 6.914062 -6.503906 6.210938 -6.828125 5.390625 -6.828125 C 4.640625 -6.828125 4.035156 -6.601562 3.578125 -6.15625 C 3.128906 -5.707031 2.90625 -5.101562 2.90625 -4.34375 C 2.90625 -3.863281 3.007812 -3.4375 3.21875 -3.0625 C 3.425781 -2.6875 3.710938 -2.390625 4.078125 -2.171875 C 4.453125 -1.960938 4.878906 -1.859375 5.359375 -1.859375 C 5.835938 -1.859375 6.285156 -1.957031 6.703125 -2.15625 Z M 6.703125 -4.53125 "/></g></g></g><g fill="#cad959" fill-opacity="1"><g transform="translate(157.231435, 69.537867)"><g><path d="M 3.625 -6.84375 C 4.738281 -6.84375 5.585938 -6.585938 6.171875 -6.078125 C 6.765625 -5.566406 7.0625 -4.785156 7.0625 -3.734375 L 7.0625 0 L 4.875 0 L 4.875 -0.875 C 4.53125 -0.21875 3.863281 0.109375 2.875 0.109375 C 2.351562 0.109375 1.898438 0.0195312 1.515625 -0.15625 C 1.140625 -0.34375 0.851562 -0.585938 0.65625 -0.890625 C 0.46875 -1.203125 0.375 -1.5625 0.375 -1.96875 C 0.375 -2.601562 0.617188 -3.09375 1.109375 -3.4375 C 1.597656 -3.789062 2.347656 -3.96875 3.359375 -3.96875 L 4.703125 -3.96875 C 4.660156 -4.6875 4.1875 -5.046875 3.28125 -5.046875 C 2.957031 -5.046875 2.628906 -4.992188 2.296875 -4.890625 C 1.960938 -4.785156 1.679688 -4.640625 1.453125 -4.453125 L 0.65625 -6.0625 C 1.03125 -6.3125 1.484375 -6.503906 2.015625 -6.640625 C 2.546875 -6.773438 3.082031 -6.84375 3.625 -6.84375 Z M 3.546875 -1.375 C 3.816406 -1.375 4.054688 -1.441406 4.265625 -1.578125 C 4.472656 -1.710938 4.617188 -1.90625 4.703125 -2.15625 L 4.703125 -2.75 L 3.6875 -2.75 C 3 -2.75 2.65625 -2.519531 2.65625 -2.0625 C 2.65625 -1.851562 2.734375 -1.6875 2.890625 -1.5625 C 3.046875 -1.4375 3.265625 -1.375 3.546875 -1.375 Z M 3.546875 -1.375 "/></g></g></g><g fill="#cad959" fill-opacity="1"><g transform="translate(165.032355, 69.537867)"><g><path d="M 0.75 -9.21875 L 3.125 -9.21875 L 3.125 0 L 0.75 0 Z M 0.75 -9.21875 "/></g></g></g><g fill="#cad959" fill-opacity="1"><g transform="translate(168.920394, 69.537867)"><g><path d="M 0.75 -6.734375 L 3.125 -6.734375 L 3.125 0 L 0.75 0 Z M 1.953125 -7.484375 C 1.515625 -7.484375 1.160156 -7.601562 0.890625 -7.84375 C 0.628906 -8.082031 0.5 -8.378906 0.5 -8.734375 C 0.5 -9.085938 0.628906 -9.382812 0.890625 -9.625 C 1.160156 -9.863281 1.515625 -9.984375 1.953125 -9.984375 C 2.378906 -9.984375 2.722656 -9.867188 2.984375 -9.640625 C 3.253906 -9.410156 3.390625 -9.117188 3.390625 -8.765625 C 3.390625 -8.390625 3.253906 -8.082031 2.984375 -7.84375 C 2.722656 -7.601562 2.378906 -7.484375 1.953125 -7.484375 Z M 1.953125 -7.484375 "/></g></g></g><g fill="#cad959" fill-opacity="1"><g transform="translate(172.808432, 69.537867)"><g><path d="M 5.140625 -6.84375 C 5.972656 -6.84375 6.644531 -6.59375 7.15625 -6.09375 C 7.664062 -5.601562 7.921875 -4.851562 7.921875 -3.84375 L 7.921875 0 L 5.5625 0 L 5.5625 -3.46875 C 5.5625 -4.382812 5.191406 -4.84375 4.453125 -4.84375 C 4.046875 -4.84375 3.722656 -4.707031 3.484375 -4.4375 C 3.242188 -4.175781 3.125 -3.78125 3.125 -3.25 L 3.125 0 L 0.75 0 L 0.75 -6.734375 L 3 -6.734375 L 3 -6 C 3.269531 -6.269531 3.585938 -6.476562 3.953125 -6.625 C 4.316406 -6.769531 4.710938 -6.84375 5.140625 -6.84375 Z M 5.140625 -6.84375 "/></g></g></g><g fill="#cad959" fill-opacity="1"><g transform="translate(181.454035, 69.537867)"><g><path d="M 7.90625 -9.21875 L 7.90625 0 L 5.671875 0 L 5.671875 -0.671875 C 5.222656 -0.148438 4.5625 0.109375 3.6875 0.109375 C 3.070312 0.109375 2.507812 -0.03125 2 -0.3125 C 1.5 -0.601562 1.101562 -1.007812 0.8125 -1.53125 C 0.519531 -2.0625 0.375 -2.675781 0.375 -3.375 C 0.375 -4.070312 0.519531 -4.679688 0.8125 -5.203125 C 1.101562 -5.734375 1.5 -6.140625 2 -6.421875 C 2.507812 -6.703125 3.070312 -6.84375 3.6875 -6.84375 C 4.488281 -6.84375 5.109375 -6.613281 5.546875 -6.15625 L 5.546875 -9.21875 Z M 4.1875 -1.765625 C 4.59375 -1.765625 4.925781 -1.90625 5.1875 -2.1875 C 5.457031 -2.476562 5.59375 -2.875 5.59375 -3.375 C 5.59375 -3.875 5.460938 -4.265625 5.203125 -4.546875 C 4.941406 -4.828125 4.601562 -4.96875 4.1875 -4.96875 C 3.769531 -4.96875 3.425781 -4.828125 3.15625 -4.546875 C 2.894531 -4.265625 2.765625 -3.875 2.765625 -3.375 C 2.765625 -2.875 2.894531 -2.476562 3.15625 -2.1875 C 3.425781 -1.90625 3.769531 -1.765625 4.1875 -1.765625 Z M 4.1875 -1.765625 "/></g></g></g><g fill="#cad959" fill-opacity="1"><g transform="translate(190.124482, 69.537867)"><g><path d="M 4.140625 0.109375 C 3.421875 0.109375 2.769531 -0.0351562 2.1875 -0.328125 C 1.601562 -0.628906 1.144531 -1.046875 0.8125 -1.578125 C 0.488281 -2.109375 0.328125 -2.707031 0.328125 -3.375 C 0.328125 -4.039062 0.488281 -4.640625 0.8125 -5.171875 C 1.144531 -5.703125 1.597656 -6.113281 2.171875 -6.40625 C 2.753906 -6.695312 3.410156 -6.84375 4.140625 -6.84375 C 4.867188 -6.84375 5.519531 -6.695312 6.09375 -6.40625 C 6.675781 -6.113281 7.128906 -5.703125 7.453125 -5.171875 C 7.773438 -4.648438 7.9375 -4.050781 7.9375 -3.375 C 7.9375 -2.707031 7.773438 -2.109375 7.453125 -1.578125 C 7.128906 -1.046875 6.675781 -0.628906 6.09375 -0.328125 C 5.519531 -0.0351562 4.867188 0.109375 4.140625 0.109375 Z M 4.140625 -1.765625 C 4.546875 -1.765625 4.878906 -1.90625 5.140625 -2.1875 C 5.410156 -2.476562 5.546875 -2.875 5.546875 -3.375 C 5.546875 -3.875 5.410156 -4.265625 5.140625 -4.546875 C 4.878906 -4.828125 4.546875 -4.96875 4.140625 -4.96875 C 3.722656 -4.96875 3.378906 -4.828125 3.109375 -4.546875 C 2.847656 -4.265625 2.71875 -3.875 2.71875 -3.375 C 2.71875 -2.875 2.847656 -2.476562 3.109375 -2.1875 C 3.378906 -1.90625 3.722656 -1.765625 4.140625 -1.765625 Z M 4.140625 -1.765625 "/></g></g></g><g fill="#cad959" fill-opacity="1"><g transform="translate(198.397429, 69.537867)"><g><path d="M 4.84375 -8.6875 C 5.632812 -8.6875 6.316406 -8.554688 6.890625 -8.296875 C 7.472656 -8.035156 7.921875 -7.660156 8.234375 -7.171875 C 8.546875 -6.691406 8.703125 -6.128906 8.703125 -5.484375 C 8.703125 -4.828125 8.546875 -4.257812 8.234375 -3.78125 C 7.921875 -3.300781 7.472656 -2.925781 6.890625 -2.65625 C 6.316406 -2.394531 5.632812 -2.265625 4.84375 -2.265625 L 3.328125 -2.265625 L 3.328125 0 L 0.875 0 L 0.875 -8.6875 Z M 4.703125 -4.21875 C 5.203125 -4.21875 5.578125 -4.328125 5.828125 -4.546875 C 6.085938 -4.765625 6.21875 -5.078125 6.21875 -5.484375 C 6.21875 -5.890625 6.085938 -6.203125 5.828125 -6.421875 C 5.578125 -6.640625 5.203125 -6.75 4.703125 -6.75 L 3.328125 -6.75 L 3.328125 -4.21875 Z M 4.703125 -4.21875 "/></g></g></g><g fill="#cad959" fill-opacity="1"><g transform="translate(207.552331, 69.537867)"><g><path d="M 5.40625 -0.265625 C 5.207031 -0.148438 4.960938 -0.0625 4.671875 0 C 4.390625 0.0703125 4.085938 0.109375 3.765625 0.109375 C 2.890625 0.109375 2.210938 -0.101562 1.734375 -0.53125 C 1.265625 -0.96875 1.03125 -1.609375 1.03125 -2.453125 L 1.03125 -4.71875 L 0.046875 -4.71875 L 0.046875 -6.484375 L 1.03125 -6.484375 L 1.03125 -8.234375 L 3.390625 -8.234375 L 3.390625 -6.484375 L 4.9375 -6.484375 L 4.9375 -4.71875 L 3.390625 -4.71875 L 3.390625 -2.484375 C 3.390625 -2.242188 3.453125 -2.054688 3.578125 -1.921875 C 3.710938 -1.785156 3.882812 -1.71875 4.09375 -1.71875 C 4.375 -1.71875 4.613281 -1.785156 4.8125 -1.921875 Z M 5.40625 -0.265625 "/></g></g></g><g fill="#cad959" fill-opacity="1"><g transform="translate(213.104894, 69.537867)"><g><path d="M 7.546875 -4.53125 C 8.046875 -4.351562 8.4375 -4.082031 8.71875 -3.71875 C 9 -3.351562 9.140625 -2.910156 9.140625 -2.390625 C 9.140625 -1.617188 8.832031 -1.023438 8.21875 -0.609375 C 7.601562 -0.203125 6.71875 0 5.5625 0 L 0.875 0 L 0.875 -8.6875 L 5.3125 -8.6875 C 6.425781 -8.6875 7.269531 -8.484375 7.84375 -8.078125 C 8.425781 -7.671875 8.71875 -7.117188 8.71875 -6.421875 C 8.71875 -6.003906 8.613281 -5.628906 8.40625 -5.296875 C 8.207031 -4.972656 7.921875 -4.71875 7.546875 -4.53125 Z M 3.296875 -6.921875 L 3.296875 -5.234375 L 5 -5.234375 C 5.820312 -5.234375 6.234375 -5.519531 6.234375 -6.09375 C 6.234375 -6.644531 5.820312 -6.921875 5 -6.921875 Z M 5.359375 -1.78125 C 6.222656 -1.78125 6.65625 -2.070312 6.65625 -2.65625 C 6.65625 -3.25 6.222656 -3.546875 5.359375 -3.546875 L 3.296875 -3.546875 L 3.296875 -1.78125 Z M 5.359375 -1.78125 "/></g></g></g><g fill="#cad959" fill-opacity="1"><g transform="translate(222.657295, 69.537867)"><g><path d="M 3 -5.921875 C 3.238281 -6.234375 3.550781 -6.460938 3.9375 -6.609375 C 4.320312 -6.765625 4.765625 -6.84375 5.265625 -6.84375 L 5.265625 -4.71875 C 5.046875 -4.738281 4.867188 -4.75 4.734375 -4.75 C 4.222656 -4.75 3.828125 -4.613281 3.546875 -4.34375 C 3.265625 -4.070312 3.125 -3.65625 3.125 -3.09375 L 3.125 0 L 0.75 0 L 0.75 -6.734375 L 3 -6.734375 Z M 3 -5.921875 "/></g></g></g><g fill="#ffffff" fill-opacity="1"><g transform="translate(172.780076, 78.787226)"><g><path d="M 3.28125 -3.46875 L 1.234375 -3.46875 L 1.234375 -2.296875 L 3.078125 -2.296875 L 3.078125 -1.671875 L 1.234375 -1.671875 L 1.234375 0 L 0.53125 0 L 0.53125 -4.09375 L 3.28125 -4.09375 Z M 3.28125 -3.46875 "/></g></g></g><g fill="#ffffff" fill-opacity="1"><g transform="translate(176.139553, 78.787226)"><g><path d="M 1.171875 -3.109375 L 1.171875 -2.484375 C 1.378906 -2.910156 1.738281 -3.125 2.25 -3.125 L 2.25 -2.484375 C 1.9375 -2.503906 1.679688 -2.429688 1.484375 -2.265625 C 1.296875 -2.109375 1.191406 -1.894531 1.171875 -1.625 L 1.171875 0 L 0.5 0 L 0.5 -3.109375 Z M 1.171875 -3.109375 "/></g></g></g><g fill="#ffffff" fill-opacity="1"><g transform="translate(178.441527, 78.787226)"><g><path d="M 1.828125 -3.125 C 2.304688 -3.125 2.695312 -2.976562 3 -2.6875 C 3.300781 -2.40625 3.453125 -2.023438 3.453125 -1.546875 C 3.453125 -1.085938 3.300781 -0.710938 3 -0.421875 C 2.695312 -0.128906 2.304688 0.015625 1.828125 0.015625 C 1.347656 0.015625 0.957031 -0.128906 0.65625 -0.421875 C 0.351562 -0.710938 0.203125 -1.085938 0.203125 -1.546875 C 0.203125 -2.023438 0.351562 -2.40625 0.65625 -2.6875 C 0.957031 -2.976562 1.347656 -3.125 1.828125 -3.125 Z M 1.828125 -2.546875 C 1.546875 -2.546875 1.316406 -2.453125 1.140625 -2.265625 C 0.960938 -2.085938 0.875 -1.847656 0.875 -1.546875 C 0.875 -1.242188 0.960938 -1 1.140625 -0.8125 C 1.316406 -0.625 1.546875 -0.53125 1.828125 -0.53125 C 2.109375 -0.53125 2.335938 -0.625 2.515625 -0.8125 C 2.691406 -1 2.78125 -1.242188 2.78125 -1.546875 C 2.78125 -1.847656 2.691406 -2.085938 2.515625 -2.265625 C 2.335938 -2.453125 2.109375 -2.546875 1.828125 -2.546875 Z M 1.828125 -2.546875 "/></g></g></g><g fill="#ffffff" fill-opacity="1"><g transform="translate(182.093136, 78.787226)"><g><path d="M 2.3125 -3.125 C 2.675781 -3.125 2.957031 -3.019531 3.15625 -2.8125 C 3.363281 -2.601562 3.46875 -2.3125 3.46875 -1.9375 L 3.46875 0 L 2.796875 0 L 2.796875 -1.75 C 2.796875 -1.976562 2.726562 -2.160156 2.59375 -2.296875 C 2.46875 -2.429688 2.285156 -2.5 2.046875 -2.5 C 1.796875 -2.5 1.59375 -2.421875 1.4375 -2.265625 C 1.28125 -2.109375 1.191406 -1.90625 1.171875 -1.65625 L 1.171875 0 L 0.5 0 L 0.5 -3.109375 L 1.171875 -3.109375 L 1.171875 -2.515625 C 1.378906 -2.921875 1.757812 -3.125 2.3125 -3.125 Z M 2.3125 -3.125 "/></g></g></g><g fill="#ffffff" fill-opacity="1"><g transform="translate(185.966762, 78.787226)"><g><path d="M 2.09375 -0.71875 L 2.25 -0.203125 C 2 -0.046875 1.742188 0.03125 1.484375 0.03125 C 1.234375 0.03125 1.023438 -0.0390625 0.859375 -0.1875 C 0.703125 -0.34375 0.625 -0.570312 0.625 -0.875 L 0.625 -2.484375 L 0.1875 -2.484375 L 0.1875 -2.984375 L 0.625 -2.984375 L 0.625 -3.84375 L 1.28125 -3.84375 L 1.28125 -2.984375 L 2.203125 -2.984375 L 2.203125 -2.484375 L 1.28125 -2.484375 L 1.28125 -1 C 1.28125 -0.84375 1.304688 -0.734375 1.359375 -0.671875 C 1.421875 -0.609375 1.507812 -0.578125 1.625 -0.578125 C 1.75 -0.578125 1.90625 -0.625 2.09375 -0.71875 Z M 2.09375 -0.71875 "/></g></g></g><g fill="#ffffff" fill-opacity="1"><g transform="translate(188.344691, 78.787226)"><g><path d="M 1.796875 -1.546875 L 0.359375 -1.546875 L 0.359375 -2.015625 L 1.796875 -2.015625 Z M 1.796875 -1.546875 "/></g></g></g><g fill="#ffffff" fill-opacity="1"><g transform="translate(190.494758, 78.787226)"><g><path d="M 3.453125 -3.46875 L 1.234375 -3.46875 L 1.234375 -2.359375 L 3.21875 -2.359375 L 3.21875 -1.75 L 1.234375 -1.75 L 1.234375 -0.625 L 3.53125 -0.625 L 3.53125 0 L 0.53125 0 L 0.53125 -4.09375 L 3.453125 -4.09375 Z M 3.453125 -3.46875 "/></g></g></g><g fill="#ffffff" fill-opacity="1"><g transform="translate(194.327483, 78.787226)"><g><path d="M 2.3125 -3.125 C 2.675781 -3.125 2.957031 -3.019531 3.15625 -2.8125 C 3.363281 -2.601562 3.46875 -2.3125 3.46875 -1.9375 L 3.46875 0 L 2.796875 0 L 2.796875 -1.75 C 2.796875 -1.976562 2.726562 -2.160156 2.59375 -2.296875 C 2.46875 -2.429688 2.285156 -2.5 2.046875 -2.5 C 1.796875 -2.5 1.59375 -2.421875 1.4375 -2.265625 C 1.28125 -2.109375 1.191406 -1.90625 1.171875 -1.65625 L 1.171875 0 L 0.5 0 L 0.5 -3.109375 L 1.171875 -3.109375 L 1.171875 -2.515625 C 1.378906 -2.921875 1.757812 -3.125 2.3125 -3.125 Z M 2.3125 -3.125 "/></g></g></g><g fill="#ffffff" fill-opacity="1"><g transform="translate(198.201109, 78.787226)"><g><path d="M 3.453125 -4.34375 L 3.453125 0 L 2.78125 0 L 2.78125 -0.53125 C 2.550781 -0.15625 2.1875 0.03125 1.6875 0.03125 C 1.25 0.03125 0.890625 -0.113281 0.609375 -0.40625 C 0.335938 -0.707031 0.203125 -1.09375 0.203125 -1.5625 C 0.203125 -2.03125 0.335938 -2.410156 0.609375 -2.703125 C 0.878906 -2.992188 1.238281 -3.140625 1.6875 -3.140625 C 2.1875 -3.140625 2.550781 -2.953125 2.78125 -2.578125 L 2.78125 -4.34375 Z M 1.140625 -0.8125 C 1.328125 -0.625 1.554688 -0.53125 1.828125 -0.53125 C 2.109375 -0.53125 2.335938 -0.625 2.515625 -0.8125 C 2.691406 -1 2.78125 -1.242188 2.78125 -1.546875 C 2.78125 -1.847656 2.691406 -2.09375 2.515625 -2.28125 C 2.335938 -2.46875 2.109375 -2.5625 1.828125 -2.5625 C 1.554688 -2.5625 1.328125 -2.46875 1.140625 -2.28125 C 0.960938 -2.09375 0.875 -1.847656 0.875 -1.546875 C 0.875 -1.242188 0.960938 -1 1.140625 -0.8125 Z M 1.140625 -0.8125 "/></g></g></g></svg>